<?xml version="1.0" standalone="no"?>
<!DOCTYPE svg PUBLIC "-//W3C//DTD SVG 1.1//EN" "http://www.w3.org/Graphics/SVG/1.1/DTD/svg11.dtd" >
<svg>
<metadata>
Created by FontForge 20090622 at Fri Nov  9 12:12:07 2018
 By deploy user
Copyright 1992, Free Programmers Software, All Rights Reserved
</metadata>
<defs>
<font id="CourierNewBold" horiz-adv-x="2650" >
  <font-face 
    font-family="Courier New"
    font-weight="700"
    font-stretch="normal"
    units-per-em="4096"
    panose-1="2 2 -30 0 0 0 0 0 0 0"
    ascent="3276"
    descent="-820"
    x-height="1970"
    cap-height="2527"
    bbox="-160 -1155 2806 3502"
    underline-thickness="80"
    underline-position="-80"
    unicode-range="U+0020-U+2219"
  />
<missing-glyph horiz-adv-x="3072" 
d="M512 0v2560h2048v-2560h-2048zM2497 63v2434h-1922v-2434h1922z" />
    <glyph glyph-name=".notdef" horiz-adv-x="3072" 
d="M512 0v2560h2048v-2560h-2048zM2497 63v2434h-1922v-2434h1922z" />
    <glyph glyph-name=".null" 
 />
    <glyph glyph-name="nonmarkingreturn" 
 />
    <glyph glyph-name="space" unicode=" " 
 />
    <glyph glyph-name="exclam" unicode="!" 
d="M1790 233q0 -110 -96.5 -186t-210.5 -76h-320q-114 0 -211 76q-96 76 -96 186v263q0 106 98 184q99 78 209 78h320q110 0 208.5 -78t98.5 -184v-263zM1196 2601h254q192 0 192 -172l-77 -1438q0 -110 -115 -110h-254q-115 0 -115 110l-77 1438q0 172 192 172z" />
    <glyph glyph-name="quotedbl" unicode="&#x22;" 
d="M1163 2527q70 0 70 -78l-78 -958q0 -86 -78 -86h-319q-78 0 -78 82l-74 958q0 82 58 82h499zM1978 2527q62 0 62 -82l-74 -958q0 -82 -78 -82h-319q-78 0 -78 86l-78 958q0 78 70 78h495z" />
    <glyph glyph-name="numbersign" unicode="#" 
d="M1237 1081h160l20 365h-160zM1430 1888l61 930q0 119 86 119h229q95 0 95 -123l-46 -926h308q86 0 86 -90v-246q0 -106 -86 -106h-328l-20 -365h348q86 0 86 -90v-246q0 -102 -86 -102h-373l-45 -876q0 -103 -86 -103h-246q-90 0 -90 131l49 848h-164l-41 -876
q0 -103 -90 -103h-246q-90 0 -90 131l54 848h-312q-86 0 -86 102v246q0 90 86 90h332l21 365h-353q-86 0 -86 106v246q0 90 86 90h369l57 930q0 119 86 119h230q98 0 98 -123l-49 -926h156z" />
    <glyph glyph-name="dollar" unicode="$" 
d="M1171 2568v193q0 147 115 147h242q106 0 106 -147v-189q107 -28 176 -102q29 53 74 57h193q98 0 98 -94v-557q0 -90 -78 -90h-274q-25 0 -74 78q-45 155 -168 229t-266 74q-164 0 -264 -70q-101 -69 -101 -221q0 -176 154 -236q153 -59 502 -120q266 -62 458 -232
q193 -170 197 -506v-12q0 -229 -100 -379q-101 -149 -258.5 -221t-341.5 -96h-66v-553q0 -115 -90 -115h-283q-82 0 -82 119v565h-28q-123 33 -193 103q-8 -50 -65 -62h-242q-119 0 -135 176v492v4q0 147 135 147h217q143 0 152 -184q4 -111 141 -188.5t293 -77.5h12
q217 0 319.5 49t102.5 217v20q0 144 -168 203q-168 60 -549 121q-250 53 -424 258t-174 500t195 497q194 203 452 203h90z" />
    <glyph glyph-name="percent" unicode="%" 
d="M782 1774q127 0 201 65q74 66 74 197q0 118 -66 194q-65 76 -196 76q-140 0 -211.5 -65.5t-71.5 -200.5t72 -201q71 -65 198 -65zM786 2687q349 0 521 -172t172 -483q0 -295 -195 -469q-194 -174 -493 -174q-304 0 -498.5 170t-194.5 473q0 315 168 485t520 170z
M1855 233q127 0 201 66t74 197q0 118 -66 194q-65 76 -196 76q-139 0 -211 -66q-72 -65 -72 -200t72 -201t198 -66zM1860 1147q348 0 520 -172t172 -483q0 -295 -195 -469q-194 -175 -493 -175q-303 0 -498 170t-195 474q0 315 168 485t521 170zM389 958q0 136 119 172
l1495 578q12 4 41 4q164 0 164 -123q0 -151 -82 -180l-1516 -598q-16 -8 -37 -8q-184 0 -184 155z" />
    <glyph glyph-name="ampersand" unicode="&#x26;" 
d="M999 995q-143 -110 -143 -274q0 -107 66 -197q98 -135 249 -135q123 0 226 103zM573 1806q5 238 168 406q164 168 459 168q193 0 320 -58q127 -57 151 -57h123q90 0 90 -213q0 -119 -39 -192.5t-157 -73.5q-230 0 -258 65q-9 4 -103 66q-53 33 -98 33q-131 0 -131 -135
q0 -82 37 -152l548 -696q58 82 58 151v62q0 188 155 209h287q103 0 103 -140v-233q-5 -53 -78.5 -82t-73.5 -62q-4 -114 -53 -213q-45 -94 -45 -131l102 -118h66q61 0 61 -78v-266q0 -74 -86 -74h-385l-115 114q-57 -69 -223 -116t-379 -47q-266 0 -428 90t-231.5 247.5
t-69.5 362.5q0 217 82 379t258 334q-74 106 -94.5 204.5t-20.5 245.5z" />
    <glyph glyph-name="quotesingle" unicode="'" 
d="M1741 2527q69 0 69 -98q0 -45 -24 -102l-483 -967q-25 -57 -119 -57q-33 0 -62 8l-200 82q-58 24 -58 98q0 8 4 25q4 20 4 24l218 889q24 98 77 98h574z" />
    <glyph glyph-name="parenleft" unicode="(" 
d="M1712 2601q115 0 115 -172q0 -66 -12 -115q-136 -270 -234 -547q-98 -276 -147.5 -505.5t-49.5 -380.5v-13q0 -209 70 -460.5t246 -706.5q133 -344 135 -344v0q0 2 -12 37q8 -33 8 -74q0 -180 -135 -180h-111q-98 0 -287 237q-188 238 -333 637q-146 400 -146 867v8
q0 401 141.5 800.5t329.5 655.5q189 256 303 256h119z" />
    <glyph glyph-name="parenright" unicode=")" 
d="M831 2314q-20 41 -20 119q0 168 123 168h115q114 0 304.5 -256t329.5 -655q140 -400 140 -801v-8q0 -467 -144 -867q-143 -399 -333 -637q-191 -237 -289 -237h-115q-131 0 -131 180q0 41 8 74l-6 -15v0q2 0 141 353q168 424 238 675.5t70 460.5v13q0 151 -50 381
q-49 229 -147 505q-98 277 -234 547z" />
    <glyph glyph-name="asterisk" unicode="*" 
d="M1511 1864l570 270l188 -516l-594 -131l426 -471l-446 -348l-332 565l-332 -565l-446 348l422 471l-590 131l188 516l574 -274l-86 667h536z" />
    <glyph glyph-name="plus" unicode="+" 
d="M1196 2470h254q102 0 102 -115v-823h820q118 0 118 -102v-242q0 -107 -118 -107h-820v-807q0 -114 -102 -114h-246q-114 0 -114 131v790h-820q-114 0 -114 103v233q0 115 114 115h820v823q0 115 106 115z" />
    <glyph glyph-name="comma" unicode="," 
d="M1180 700h606q102 0 102 -135q0 -69 -41 -151l-553 -1069q-49 -107 -180 -107h4l-287 94q-65 21 -65 131l4 33l291 1094q29 110 119 110z" />
    <glyph glyph-name="hyphen" unicode="-" 
d="M348 1257h1946q78 0 78 -73v-393q0 -91 -74 -91h-1954q-74 0 -74 82v406q0 69 78 69z" />
    <glyph glyph-name="period" unicode="." 
d="M827 274v209q0 123 117 221.5t240 98.5h274q127 0 242 -105q115 -104 115 -219v-200q0 -119 -113 -220q-113 -100 -236 -100h-282q-123 0 -240 98q-117 99 -117 217z" />
    <glyph glyph-name="slash" unicode="/" 
d="M1892 3052h213q189 0 189 -144q0 -90 -53 -192l-1401 -2859q-37 -86 -103 -86h-196q-185 0 -185 159q0 66 54 181l1380 2842q45 99 102 99z" />
    <glyph glyph-name="zero" unicode="0" 
d="M1327 406q176 0 303 229t127 684v33q0 315 -47 528t-143.5 319.5t-239.5 106.5t-242 -106q-98 -107 -147 -322t-49 -526v-33q0 -455 129 -684t309 -229zM1323 2765q356 0 567 -201t295 -518t84 -694q0 -439 -96 -752t-307 -481t-539 -168q-323 0 -536 168t-312 481
q-98 313 -98 752q0 377 82 694t293 518t567 201z" />
    <glyph glyph-name="one" unicode="1" 
d="M1274 2761h233q62 0 62 -90v-2237h520q111 0 111 -135v-164q0 -135 -111 -135h-1532q-111 0 -111 135v164q0 135 111 135h533v1807l-324 -91h-197q-94 0 -94 103v184q0 103 70 119z" />
    <glyph glyph-name="two" unicode="2" 
d="M1413 2761q238 0 432 -99q195 -98 307 -280q113 -182 113 -420v-29q0 -217 -59 -381q-60 -163 -203 -290l-827 -779h639q49 185 131 185h229q102 0 102 -107v-323q0 -238 -114 -238h-1651q-147 0 -147 135v242q0 90 73 151l1106 1012q119 107 156 191t37 194
q0 156 -119 262q-119 107 -279 107q-135 0 -237 -62q-103 -61 -144 -159q-69 -172 -188 -172h-184q-115 0 -115 159v324q123 151 362.5 264t563.5 113h16z" />
    <glyph glyph-name="three" unicode="3" 
d="M1307 410q176 0 319 98t143 307q0 201 -176 293t-495 104q-58 0 -58 74v262q0 86 99 86h32q213 0 362.5 98.5t149.5 237.5q0 148 -114.5 229.5t-249.5 81.5q-143 0 -221 -34.5t-185 -137.5q0 -32 -65 -32h-250q-86 0 -86 73v258q139 172 329.5 260.5t485.5 88.5
q258 0 454.5 -86t303 -242t106.5 -352v-13q0 -225 -69.5 -366.5t-212.5 -214.5v-37q184 -78 276 -227.5t92 -448.5q0 -246 -104.5 -430t-337.5 -287q-233 -102 -594 -102q-340 0 -565 96t-311 236v241q0 103 135 103h184q86 0 238 -103q90 -61 188 -88q98 -26 197 -26z" />
    <glyph glyph-name="four" unicode="4" 
d="M1937 2609v-1470l54 57h213q65 0 65 -74v-233q0 -234 -119 -234h-213v-221h193q111 0 111 -135v-164q0 -135 -111 -135h-946q-111 0 -111 135v164q0 135 111 135h299v221h-1037q-73 0 -73 78v402l946 1511q78 115 135 115l365 -33q118 -12 118 -119zM893 1122h586v901z
" />
    <glyph glyph-name="five" unicode="5" 
d="M602 2687h1413q107 0 107 -143v-177q0 -147 -115 -147h-1057v-459q33 21 193 45q160 25 225 25q283 0 494 -96.5t327 -307.5q117 -210 117 -530q0 -307 -141.5 -524t-380.5 -324q-240 -106 -522 -106q-340 0 -545 43t-293 139t-88 252q0 176 168 176h114q78 0 300 -78
q217 -78 348 -78q204 4 372 139.5t168 356.5q0 197 -161 348q-162 152 -363 152q-262 0 -373 -123q-73 -58 -127 -58h-209q-73 0 -73 86v1295q0 94 102 94z" />
    <glyph glyph-name="six" unicode="6" 
d="M1753 840q0 196 -100.5 341.5t-309.5 145.5q-188 0 -294.5 -135t-106.5 -307q0 -193 108.5 -340.5t313.5 -147.5q172 0 281 135q108 136 108 308zM1712 2761h324q188 0 188 -115v-205q0 -98 -131 -98h-274q-217 0 -381 -78t-279 -225.5t-192 -364.5l37 -20q53 57 151 92
t275 35q262 0 448 -111q186 -110 280.5 -315t94.5 -471q0 -303 -103 -514q-102 -211 -305 -318q-203 -106 -493 -106h-4q-299 0 -519 149q-219 150 -331 422q-113 273 -113 617v16q0 483 174 852t475 563q301 195 662 195h16z" />
    <glyph glyph-name="seven" unicode="7" 
d="M520 2687h1663q58 0 58 -57v-320l-771 -2261q0 -86 -94 -86h-372q-74 0 -74 74v151l811 2032h-873q0 -184 -118 -184h-258q-86 0 -86 86v258q0 307 114 307z" />
    <glyph glyph-name="eight" unicode="8" 
d="M1327 -53h-12q-287 0 -498 90t-321.5 262t-110.5 397q0 303 88 455t285 213v33q-189 90 -269 209q-79 118 -79 389q0 217 106 393q107 176 315 274q209 99 496 99t496 -99q209 -98 315 -274q107 -176 107 -393q0 -271 -80 -389.5t-273 -208.5v-33q197 -61 287 -213
t90 -455q0 -225 -112.5 -397t-323.5 -262t-498 -90h-8zM1327 2327q-168 0 -291 -97q-123 -96 -123 -280q0 -156 121 -260.5t293 -104.5t293 104.5t121 260.5q0 184 -123 280q-123 97 -291 97zM1327 385q180 0 307 108.5t127 284.5q0 172 -127 278.5t-311 106.5
q-172 0 -303 -106.5t-131 -278.5q0 -176 129 -284.5t309 -108.5z" />
    <glyph glyph-name="nine" unicode="9" 
d="M885 1868q0 -197 100 -342.5t309 -145.5q189 0 295 136q107 135 107 311q0 192 -109 338q-108 145 -313 145q-172 0 -281 -135q-108 -135 -108 -307zM926 -53h-324q-188 0 -188 119v200q0 103 131 103h250q217 0 387 73q170 74 290.5 221.5t198.5 368.5l-37 25
q-53 -62 -151.5 -96.5t-274.5 -34.5q-262 0 -448 110q-187 111 -281 318t-94 473q0 303 102 514q103 211 306 317q202 107 493 107q299 0 518 -154q219 -153 332 -428q113 -274 113 -627q0 -483 -174 -851.5t-476 -563.5q-301 -194 -661 -194h-12z" />
    <glyph glyph-name="colon" unicode=":" 
d="M1458 2019q127 0 242 -104.5t115 -218.5v-197q0 -119 -113 -221t-236 -102h-282q-123 0 -240 98t-117 221v205q0 123 117 221t240 98h274zM1815 483v-200q0 -119 -113 -220q-113 -100 -236 -100h-282q-123 0 -240 98q-117 99 -117 218v208q0 123 117 221.5t240 98.5h274
q127 0 242 -105q115 -104 115 -219z" />
    <glyph glyph-name="semicolon" unicode=";" 
d="M1233 2015h274q127 0 244 -104.5t117 -218.5v-197q0 -119 -115 -221.5t-237 -102.5h-283q-123 0 -238 99q-114 98 -114 221v205q0 123 114 221q115 98 238 98zM1180 700h573q74 0 74 -118q0 -103 -41 -181l-524 -1060q-37 -78 -111 -78q-21 0 -33 4l-278 94
q-70 25 -70 119l4 24l287 1086q29 110 119 110z" />
    <glyph glyph-name="less" unicode="&#x3c;" 
d="M2163 2454h254q90 0 90 -87v-233q0 -61 -119 -115l-1421 -676l1450 -688q90 -37 90 -102v-246q0 -90 -90 -90h-246l-1872 864q-160 74 -160 131v263q0 61 148 114z" />
    <glyph glyph-name="equal" unicode="=" 
d="M2392 745h-2142q-86 0 -86 103v262q0 33 86 102h2142q90 0 90 -102v-262q0 -103 -90 -103zM250 1929h2142q90 0 90 -102v-262q0 -103 -90 -103h-2142q-86 0 -86 103v262q0 102 86 102z" />
    <glyph glyph-name="greater" unicode="&#x3e;" 
d="M2355 1589q152 -53 152 -114v-263q0 -57 -160 -131l-1872 -864h-246q-90 0 -90 90v246q0 65 90 102l1446 688l-1417 676q-119 49 -119 115v233q0 87 90 87h254z" />
    <glyph glyph-name="question" unicode="?" 
d="M1343 684q127 0 209 -68q82 -67 82 -182v-229q0 -111 -92 -176.5t-199 -65.5h-348q-106 0 -198 69.5t-92 172.5v229q0 107 92 178q92 72 198 72h348zM1122 2601h340q287 0 508 -203t221 -432v-172q0 -213 -129 -358.5t-290 -221.5q-162 -75 -371 -149v-201
q0 -119 -103 -119h-258q-102 0 -102 103v381q0 106 125 188t248 119q172 57 274 131q103 74 103 201q0 135 -132 215q-131 80 -278 80q-119 0 -225.5 -33t-147.5 -111v-90q0 -131 -114 -131h-218q-118 0 -118 119v450q65 103 272 168q207 66 395 66z" />
    <glyph glyph-name="at" unicode="@" 
d="M1327 1245q0 -209 209 -209q221 0 221 90v476q-16 4 -37 4q-131 0 -262 -80t-131 -281zM1327 2912q275 0 473 -110q199 -111 299 -293q101 -182 101 -387v-1073q143 0 143 -86v-242q0 -139 -217 -139h-201q-106 0 -106 135q-62 -135 -332 -135q-254 0 -422 159
q-168 160 -168 541q0 303 211 504t489 201h156v118q0 172 -92 289t-330 117q-176 0 -313 -162t-209 -438.5t-72 -603.5q0 -406 80 -670t227 -383q148 -119 349 -119q123 0 209 41q90 41 172 41h217q73 0 73 -74v-217q-77 -94 -264 -153q-186 -60 -321 -60q-365 0 -629 153.5
t-408 508.5q-143 354 -143 928q0 426 109 794q108 369 337 592q230 223 574 223h8z" />
    <glyph glyph-name="A" unicode="A" 
d="M1311 1974l-295 -803h602zM479 2527h1045q86 0 139 -151l778 -1942h70q110 0 110 -135v-164q0 -135 -110 -135h-905q-107 0 -107 135v164q0 135 107 135h270l-107 299h-901l-106 -299h291q110 0 110 -135v-164q0 -135 -110 -135h-922q-106 0 -106 135v164q0 135 106 135
h111l626 1659h-385q-110 0 -110 135v164q0 135 106 135z" />
    <glyph glyph-name="B" unicode="B" 
d="M946 2089v-569h561q115 0 213 88q99 88 99 198v9q0 114 -107 194q-106 80 -229 80h-537zM123 135v164q0 139 110 139h230v1651h-230q-110 0 -110 139v164q0 135 110 135h1393q299 0 506 -178t207 -436v-12q0 -189 -96.5 -336.5t-255.5 -192.5v-41q196 -37 360 -190.5
t164 -415.5q0 -225 -115 -391t-295 -250t-360 -84h-1508q-110 0 -110 135zM1974 745v9q0 127 -125 227t-264 100h-639v-643h635q143 0 268 86t125 221z" />
    <glyph glyph-name="C" unicode="C" 
d="M1368 2605q217 0 373 -57q151 -62 176 -62q37 0 78 45q37 41 65 41h267q106 0 106 -143v-803q0 -119 -119 -119h-213q-98 0 -168 242q-61 209 -184 305t-340 96q-192 0 -358 -112.5t-263 -313.5q-96 -200 -96 -438q0 -250 102.5 -448.5t272.5 -307.5q170 -108 358 -108
q172 0 293 57q121 58 350 217q91 45 136 45h123q163 0 163 -131v-135q0 -102 -102 -205q-205 -164 -442.5 -241.5t-585.5 -77.5h-21q-356 0 -626.5 168t-413.5 471t-143 688q0 369 153 674q154 305 432 479q279 174 627 174z" />
    <glyph glyph-name="D" unicode="D" 
d="M1368 2527q328 0 590 -149.5t407 -438.5q146 -288 146 -673v-13q0 -372 -148 -659q-147 -287 -405 -440.5t-574 -153.5h-1130q-111 0 -111 135v164q0 135 111 135h135v1655h-139q-111 0 -111 139v164q0 135 107 135h1122zM1270 2089h-398v-1655h426q189 0 351 98
q161 99 253.5 283t92.5 414q0 282 -97 477q-96 195 -260 289q-163 94 -368 94z" />
    <glyph glyph-name="E" unicode="E" 
d="M2376 0h-2102q-106 0 -106 135v164q0 135 106 135h283v1659h-287q-106 0 -106 135v164q0 135 106 135h2110q102 0 102 -98v-791q0 -122 -143 -122h-176q-131 0 -131 135v442h-992v-512h402v209q0 102 131 102h164q131 0 131 -102v-836q0 -106 -135 -106h-164
q-127 0 -127 110v213h-402v-737h992v500q0 115 127 115h184q139 0 139 -119v-832q0 -98 -106 -98z" />
    <glyph glyph-name="F" unicode="F" 
d="M270 0q-110 0 -110 135v164q0 135 110 135h279v1659h-283q-110 0 -110 135v164q0 135 106 135h2118q110 0 110 -102v-799q0 -106 -135 -106h-180q-135 0 -135 118v455h-1008v-528h406v213q0 110 123 110h155q127 0 127 -114v-836q0 -107 -123 -107h-159q-123 0 -123 111
v213h-406v-721h500q110 0 110 -135v-164q0 -135 -110 -135h-1262z" />
    <glyph glyph-name="G" unicode="G" 
d="M2462 831l-99 9v-680q-168 -119 -421.5 -162t-581.5 -43q-381 0 -676 168t-453 471q-157 303 -157 684q0 369 153 674q154 305 432 479q279 174 627 174q217 0 373 -57q151 -62 176 -62q37 0 78 45q37 41 65 41h267q106 0 106 -143v-700q0 -107 -94 -107h-258
q-115 0 -135 143q-21 160 -168.5 272.5t-356.5 112.5h-12q-192 0 -360 -118.5t-267 -331.5q-98 -213 -98 -463q0 -193 108.5 -393.5t284.5 -329.5t365 -129q184 0 307 37t229 102v307h-528q-106 0 -106 136v163q0 144 98 144h1102q110 0 110 -144v-163q0 -136 -110 -136z
" />
    <glyph glyph-name="H" unicode="H" 
d="M1761 1548v545h-254q-110 0 -110 135v164q0 135 110 135h877q106 0 106 -135v-164q0 -135 -110 -135h-139v-1659h135q110 0 110 -135v-164q0 -135 -110 -135h-873q-110 0 -110 135v164q0 135 110 135h258v680h-876v-680h258q110 0 110 -135v-164q0 -135 -110 -135h-873
q-110 0 -110 135v164q0 135 110 135h136v1659h-140q-110 0 -110 135v164q0 135 106 135h877q110 0 110 -135v-164q0 -135 -110 -135h-254v-545h876z" />
    <glyph glyph-name="I" unicode="I" 
d="M348 2228v164q0 135 107 135h1736q103 0 103 -135v-164q0 -135 -107 -135h-622v-1659h618q107 0 107 -135v-164q0 -135 -111 -135h-1716q-111 0 -111 135v164q0 135 111 135h618v1659h-622q-111 0 -111 135z" />
    <glyph glyph-name="J" unicode="J" 
d="M2523 2392v-164q0 -135 -106 -135h-422v-1307q0 -192 -94 -387q-95 -194 -308 -323t-532 -129q-352 0 -649 104q-297 105 -297 199v864q0 111 143 111h164q135 0 135 -111v-254q0 -221 139 -358q140 -137 377 -137q180 0 311 161q132 162 132 379v1188h-717
q-111 0 -111 135v164q0 135 107 135h1626q102 0 102 -135z" />
    <glyph glyph-name="K" unicode="K" 
d="M188 2527h967q111 0 111 -135v-164q0 -135 -111 -135h-213v-668l721 668h-147q-107 0 -107 135v164q0 135 107 135h868q106 0 106 -135v-164q0 -135 -110 -135h-156l-688 -635q254 -143 487 -549l279 -475h152q110 0 110 -135v-164q0 -135 -110 -135h-459q-53 0 -119 127
q-98 213 -211 405q-113 193 -240 348.5t-262 241.5l-221 -192v-496h217q111 0 111 -135v-164q0 -135 -111 -135h-966q-107 0 -107 135v164q0 135 107 135h270v1659h-270q-111 0 -111 135v164q0 135 106 135z" />
    <glyph glyph-name="L" unicode="L" 
d="M205 2527h1392q111 0 111 -143v-164q0 -127 -111 -127h-499v-1659h991v713q0 110 139 110h172q140 0 140 -110v-1036q0 -111 -107 -111h-2220q-107 0 -107 131v164q0 139 107 139h401v1659h-405q-107 0 -107 131v164q0 139 103 139z" />
    <glyph glyph-name="M" unicode="M" 
d="M1184 655q-78 0 -123 123l-307 885l-41 -1229h282q111 0 111 -135v-164q0 -135 -111 -135h-868q-102 0 -102 135v164q0 135 106 135h115l57 1659h-135q-102 0 -102 135v164q0 135 106 135h651q99 0 144 -151l376 -1102l361 1102q53 151 139 151h631q106 0 106 -135v-164
q0 -135 -102 -135h-135l57 -1659h111q110 0 110 -135v-164q0 -135 -106 -135h-864q-111 0 -111 135v164q0 135 111 135h295l-50 1221l-311 -877q-45 -123 -123 -123h-278z" />
    <glyph glyph-name="N" unicode="N" 
d="M410 2093h-258q-111 0 -111 135v164q0 135 106 135h701q61 0 131 -119l934 -1490v1175h-344q-111 0 -111 135v164q0 135 111 135h925q103 0 103 -135v-164q0 -135 -107 -135h-139v-2056q0 -66 -53 -66h-348q-45 0 -66 66l-1036 1630v-1233h369q110 0 110 -135v-164
q0 -135 -110 -135h-959q-111 0 -111 135v164q0 135 111 135h152v1659z" />
    <glyph glyph-name="O" unicode="O" 
d="M627 1274q0 -209 84 -418t245 -342q162 -133 371 -133t368.5 133t241.5 342t82 418t-86 415.5t-245.5 340t-364.5 133.5q-209 0 -369 -131q-159 -131 -243 -340t-84 -418zM94 1274q4 360 129 663q125 304 403.5 486t708.5 182q353 0 631 -151q279 -152 434 -457
q156 -305 156 -727q0 -385 -141.5 -686t-422 -469t-661.5 -168q-418 0 -698.5 182t-409.5 485q-129 304 -129 660z" />
    <glyph glyph-name="P" unicode="P" 
d="M1950 1675q0 152 -109 283q-108 131 -256 131h-524v-786h512q147 0 262 112q115 113 115 260zM262 2527h1364q221 0 420 -86t319 -270q121 -184 121 -459q0 -287 -123 -479q-122 -193 -321 -281t-420 -88h-565v-430h520q106 0 106 -135v-164q0 -135 -106 -135h-1307
q-110 0 -110 135v164q0 135 110 135h312v1655h-316q-110 0 -110 139v164q0 135 106 135z" />
    <glyph glyph-name="Q" unicode="Q" 
d="M627 1274q0 -209 84 -418t245 -342q162 -133 371 -133t368.5 133t241.5 342t82 418t-86 415.5t-245.5 340t-364.5 133.5q-209 0 -369 -131q-159 -131 -243 -340t-84 -418zM860 20q-258 86 -430 276.5t-254 444.5t-82 533q0 360 125 663q125 304 405.5 486t710.5 182
q353 0 631 -151q279 -152 434 -457q156 -305 156 -727q0 -336 -111 -613q-110 -276 -325 -454t-514 -236q106 -16 217 -53q90 -29 131 -29q94 0 172 58h241q91 0 91 -119v-176q0 -66 -113 -133.5t-199 -67.5h-340q-90 8 -266 70q-164 57 -246 57q-102 0 -200.5 -37
t-208.5 -106h-226q-110 0 -110 123v176q0 57 57 110z" />
    <glyph glyph-name="R" unicode="R" 
d="M1757 1769q0 164 -125 242t-289 78h-446v-643h422q168 0 303 82t135 241zM1548 2527q193 0 365 -86t278 -258q107 -172 107 -405q0 -324 -168 -490t-361 -186l467 -598q54 -70 119 -70h156q110 0 110 -135v-164q0 -135 -110 -135h-447q-82 0 -200 160l-504 651
q-148 197 -242 197h-225v-574h258q111 0 111 -135v-164q0 -135 -111 -135h-1012q-106 0 -106 135v164q0 135 106 135h271v1655h-275q-106 0 -106 139v164q0 135 102 135h1417z" />
    <glyph glyph-name="S" unicode="S" 
d="M1352 2601q102 0 247 -21q146 -20 207 -61q49 70 78 70h275q106 0 106 -115l25 -733q0 -86 -115 -86h-233q-107 0 -127 160q-25 176 -173 274q-147 98 -319 98q-238 0 -365 -71.5t-127 -247.5v-8q0 -152 181 -226q180 -73 311 -82q291 -28 516 -90q225 -61 387 -231
t162 -477q0 -316 -154 -498q-153 -182 -385 -248q-231 -65 -497 -65q-107 0 -310 28q-202 29 -260 74q-12 -131 -155 -131h-201q-131 0 -131 111l-45 823q0 160 106 160h271q94 0 102 -99q16 -229 207 -379q190 -149 412 -149q213 0 374 82q162 82 162 246q0 184 -205 256
q-204 71 -446 96q-299 37 -502 121t-307.5 229t-104.5 358q0 242 100.5 430.5t328.5 294.5q227 107 587 107h17z" />
    <glyph glyph-name="T" unicode="T" 
d="M2396 2527q86 0 86 -94l21 -1053q0 -106 -140 -106h-159q-152 0 -152 110l-16 709h-471v-1659h475q106 0 106 -135v-164q0 -135 -106 -135h-1434q-106 0 -106 135v164q0 135 106 135h475v1659h-471l-20 -709q0 -110 -148 -110h-163q-136 0 -136 106l21 1053q0 94 86 94
h2146z" />
    <glyph glyph-name="U" unicode="U" 
d="M1323 -53q-324 0 -549 108q-225 109 -334 293q-108 184 -108 397v1348h-139q-111 0 -111 135v164q0 135 106 135h865q110 0 110 -135v-164q0 -135 -110 -135h-242v-1130q0 -254 135 -412t385 -158q246 0 375 158t129 412v1130h-246q-106 0 -106 135v164q0 135 106 135
h869q106 0 106 -135v-164q0 -135 -110 -135h-140v-1348q0 -213 -106.5 -397t-331.5 -293q-225 -108 -553 -108z" />
    <glyph glyph-name="V" unicode="V" 
d="M1470 -53h-299q-102 0 -143 135l-795 2011h-102q-106 0 -106 135v164q0 135 102 135h897q106 0 106 -135v-164q0 -135 -106 -135h-258l582 -1438l536 1438h-262q-111 0 -111 135v164q0 135 111 135h893q106 0 106 -135v-164q0 -135 -110 -135h-103l-770 -2015
q-49 -131 -168 -131z" />
    <glyph glyph-name="W" unicode="W" 
d="M885 -12h-307q-107 0 -107 98l-274 2007h-66q-106 0 -106 135v164q0 135 102 135h881q110 0 110 -135v-164q0 -135 -110 -135h-316l127 -1200l258 860q37 119 103 119h286q66 0 103 -119l319 -864l115 1204h-365q-110 0 -110 135v164q0 135 110 135h877q106 0 106 -135
v-164q0 -135 -110 -135h-62l-241 -2007q0 -98 -107 -98h-311q-70 0 -94 98l-369 1032l-336 -1040q-24 -90 -106 -90z" />
    <glyph glyph-name="X" unicode="X" 
d="M287 2527h774q110 0 110 -135v-164q0 -135 -110 -135h-45l332 -414l340 414h-111q-111 0 -111 135v164q0 135 111 135h778q103 0 103 -135v-164q0 -135 -107 -135h-70l-643 -766l709 -893h61q107 0 107 -135v-164q0 -135 -111 -135h-831q-111 0 -111 135v164
q0 135 111 135h102l-360 451l-361 -451h111q111 0 111 -135v-164q0 -135 -111 -135h-832q-110 0 -110 135v164q0 135 110 135h95l692 844l-672 815h-57q-107 0 -107 135v164q0 135 103 135z" />
    <glyph glyph-name="Y" unicode="Y" 
d="M2032 0h-1418q-110 0 -110 135v164q0 135 110 135h463v504l-717 1155h-143q-106 0 -106 135v164q0 135 102 135h881q106 0 106 -135v-164q0 -135 -106 -135h-160l385 -655l410 655h-115q-107 0 -107 135v164q0 135 107 135h819q102 0 102 -135v-164q0 -135 -106 -135
h-148l-712 -1155v-504h463q106 0 106 -135v-164q0 -135 -106 -135z" />
    <glyph glyph-name="Z" unicode="Z" 
d="M582 2527h1540q147 0 147 -151v-172q0 -58 -78 -213l-1175 -1553h762l32 578q0 106 144 106h164q147 0 147 -114l-41 -906q0 -102 -98 -102h-1606q-147 0 -147 135v213q0 45 57 172l1212 1573h-700l-24 -512q0 -119 -148 -119h-164q-143 0 -143 119l29 856q0 90 90 90z
" />
    <glyph glyph-name="bracketleft" unicode="[" 
d="M922 2527h798q103 0 103 -131v-139q0 -135 -107 -135h-389v-2499h402q94 0 94 -135v-143q0 -131 -103 -131h-798q-103 0 -103 102v3113q0 98 103 98z" />
    <glyph glyph-name="backslash" unicode="\" 
d="M856 2953l1380 -2842q45 -99 45 -181q0 -159 -176 -159h-200q-99 0 -99 86l-1400 2859q-62 123 -62 192q0 144 197 144h213q57 0 102 -99z" />
    <glyph glyph-name="bracketright" unicode="]" 
d="M926 2527h798q99 0 99 -98v-3113q0 -102 -99 -102h-798q-107 0 -107 131v143q0 135 99 135h401v2499h-389q-111 0 -111 135v139q0 131 107 131z" />
    <glyph glyph-name="asciicircum" unicode="^" 
d="M1438 2953q69 0 102 -45l614 -799v-221q0 -73 -73 -73h-217l-541 540l-541 -540h-217q-73 0 -73 73v221l614 799q29 45 98 45h234z" />
    <glyph glyph-name="underscore" unicode="_" 
d="M-78 -664h2794q90 0 90 -81v-316q0 -94 -90 -94h-2794q-82 0 -82 90v307q0 94 82 94z" />
    <glyph glyph-name="grave" unicode="`" 
d="M1483 1364h-574q-57 0 -57 106q0 46 12 99l484 962q20 58 114 58q33 0 62 -4l205 -82q53 -25 53 -103l-4 -45l-217 -889q-25 -102 -78 -102z" />
    <glyph glyph-name="a" unicode="a" 
d="M1245 954q-266 0 -434 -71.5t-168 -264.5v-8q0 -98 102 -141q103 -43 226 -43h20q185 0 369 61q184 62 303 177v245q-78 45 -418 45zM1266 2019q241 0 438 -75.5t311 -237.5q115 -162 115 -395v-885h246q106 0 106 -152v-127q0 -147 -110 -147h-562q-110 0 -122 193
q-189 -132 -345 -185q-155 -53 -385 -53q-221 0 -395 51t-284.5 192.5t-110.5 391.5q0 295 157.5 467t387.5 235q229 64 467 64q110 0 255.5 -8.5t227.5 -32.5q0 151 -119 235t-319 84q-144 0 -303 -102q-164 -102 -226 -102h-180q-119 0 -119 163v148q17 127 260 203
q244 75 609 75z" />
    <glyph glyph-name="b" unicode="b" 
d="M1442 426q237 0 415.5 166t178.5 403q0 230 -181 400q-180 170 -405 170q-229 0 -412 -148q-182 -147 -182 -385q0 -291 166 -448.5t420 -157.5zM201 2793h590q65 0 65 -69v-909l21 -9q114 103 265.5 156t340.5 53q327 0 571 -137t369 -373q125 -235 125 -514v-8
q0 -299 -140 -532q-139 -234 -383 -361q-243 -127 -534 -127q-160 0 -328 51q-168 52 -270 170h-33v-123q-49 -61 -78 -61h-577q-107 0 -107 147v127q0 152 103 152h188v1941h-184q-107 0 -107 148v131q0 147 103 147z" />
    <glyph glyph-name="c" unicode="c" 
d="M1335 2019q246 0 385 -43q140 -43 254 -116q0 127 99 127h217q118 0 118 -132v-667q0 -90 -86 -90h-274q-78 0 -78 73q-61 177 -246 283q-184 107 -401 107q-205 0 -399.5 -172t-194.5 -402q0 -229 186 -401q187 -172 412 -172q291 0 512 163.5t295 163.5h156
q135 0 135 -114v-172q0 -82 -62 -123q-241 -189 -450 -279t-590 -90q-291 0 -543 112.5t-405.5 344t-153.5 559.5q0 307 129 544.5t383 366.5t602 129z" />
    <glyph glyph-name="d" unicode="d" 
d="M1790 1032q0 238 -182 385q-183 148 -412 148t-408 -170q-178 -170 -178 -400q0 -237 176 -403q177 -166 414 -166q254 0 422 157.5t168 448.5zM1393 2642q0 151 106 151h672q86 0 86 -69v-2298h184q107 0 107 -152v-127q0 -147 -111 -147h-622q-54 0 -54 49v98h-28
q-95 -94 -258.5 -139t-319.5 -45q-291 0 -534.5 127t-383 362.5t-139.5 538.5q0 275 123 510q123 236 364.5 375t565.5 139h12q156 0 326 -55t272 -150h29v553h-287q-110 0 -110 148v131z" />
    <glyph glyph-name="e" unicode="e" 
d="M709 1212h1200q-58 172 -217.5 283t-348.5 111q-217 0 -389 -101q-172 -100 -245 -293zM1348 2019q319 0 575 -121q256 -120 399 -327q144 -207 144 -449v-200q0 -131 -144 -131h-1630q66 -213 236 -312q170 -98 383 -98q205 0 487 131q283 131 320 131h233q98 0 98 -90
v-229q-94 -107 -264 -189t-399.5 -127t-487.5 -45q-348 0 -600 110.5t-385 332t-133 528.5q0 356 137 602q138 246 402 364.5t629 118.5z" />
    <glyph glyph-name="f" unicode="f" 
d="M1630 2363q-184 0 -264 -71.5t-80 -214.5v-107h828q102 0 102 -147v-127q0 -144 -115 -144h-803v-1126h770q107 0 107 -152v-127q0 -147 -111 -147h-1642q-111 0 -111 147v127q0 152 107 152h418v1126h-410q-119 0 -119 144v127q0 147 107 147h405v262q0 267 235.5 414
t518.5 147h422q192 0 266 -55t74 -141v-127q0 -143 -115 -143h-201v0q0 2 -135 20q-147 16 -254 16z" />
    <glyph glyph-name="g" unicode="g" 
d="M1200 1548q-229 0 -401 -170t-172 -411q0 -230 170 -394q170 -163 399 -163q205 0 377 147q172 148 172 385q0 266 -166 436t-379 170zM1303 -451q155 0 292 138q138 137 138 260v192h-29q-90 -94 -221 -137t-295 -43h-25q-352 0 -575 127t-320 354q-96 228 -96 535
q0 311 121 546.5t346 362.5t516 127q168 0 313 -51q146 -51 244 -141h21v102q0 49 41 49h581q119 0 119 -147v-131q0 -144 -107 -144h-184v-1720q0 -279 -149.5 -446.5t-348 -233.5t-354.5 -66h-332q-131 0 -262 35t-131 129v189q0 139 156 139h221q49 0 180 -12
q127 -13 140 -13z" />
    <glyph glyph-name="h" unicode="h" 
d="M242 2793h598q57 0 57 -57v-962h37q86 106 233 174q148 67 316 67q213 0 379 -90t256 -252t90 -366v-881h192q107 0 107 -152v-127q0 -147 -111 -147h-819q-111 0 -111 147v127q0 152 107 152h172v762q0 151 -115 256q-114 104 -299 104q-147 0 -266 -110.5t-168 -261.5
v-750h188q107 0 107 -152v-127q0 -147 -111 -147h-831q-111 0 -111 147v127q0 152 107 152h184v1941h-180q-111 0 -111 152v131q0 143 103 143z" />
    <glyph glyph-name="i" unicode="i" 
d="M1077 426v1118h-479q-106 0 -106 148v127q0 151 98 151h876q70 0 70 -82v-1462h745q107 0 107 -147v-127q0 -152 -107 -152h-1916q-107 0 -107 147v127q0 152 102 152h717zM1147 2937h303q135 0 135 -168v-369q0 -147 -119 -147h-344q-118 0 -118 155v369q0 160 143 160z
" />
    <glyph glyph-name="j" unicode="j" 
d="M627 1970h1421q78 0 78 -74v-1982q0 -266 -117 -455q-117 -188 -319.5 -282.5t-448.5 -94.5h-385q-102 0 -205 39q-102 39 -102 121v217q0 115 131 115h246q61 0 151 -12q86 -13 119 -13h16q185 9 316 146t131 317v1536h-1028q-111 0 -111 148v127q0 147 107 147z
M1397 2408v369q0 160 143 160h303q131 0 131 -168v-369q0 -147 -114 -147h-349q-114 0 -114 155z" />
    <glyph glyph-name="k" unicode="k" 
d="M958 2736v-1540l476 389q-156 0 -160 152v114q0 119 102 119h877q102 0 102 -147v-127q0 -148 -106 -148h-156q-82 0 -233 -86q-136 -84 -136 -90v0l-270 -225l741 -721h234q102 0 102 -152v-127q0 -147 -106 -147h-864q-111 0 -111 147v127q0 148 111 148l-467 434
l-136 -106v-635q0 -115 -102 -115h-623q-110 0 -110 147v127q0 152 106 152h263v1941h-275q-106 0 -106 148v135q0 143 102 143h684q61 0 61 -57z" />
    <glyph glyph-name="l" unicode="l" 
d="M500 2793h962q70 0 70 -69v-2298h717q102 0 102 -152v-127q0 -147 -110 -147h-1840q-110 0 -110 147v127q0 152 106 152h672v1941h-561q-111 0 -111 152v131q0 143 103 143z" />
    <glyph glyph-name="m" unicode="m" 
d="M1454 1815q45 81 155.5 140.5t266.5 59.5h8q299 0 430 -147.5t131 -413.5v-1028h70q106 0 106 -156v-127q0 -143 -110 -143h-385q-135 0 -135 131v1143q0 139 -52 217q-51 78 -153 78q-94 0 -148 -82q-53 -82 -53 -193v-868h144q102 0 102 -156v-127q0 -143 -107 -143
h-520q-82 0 -82 115v1175q0 144 -59 211q-59 68 -158 68q-196 0 -196 -246v-897h159q103 0 103 -156v-127q0 -143 -103 -143h-737q-106 0 -106 143v127q0 156 102 156h115v1118h-115q-107 0 -107 148v127q0 151 103 151h500q45 0 45 -86v-16h37q98 147 311 147
q160 0 258 -53t147 -147h33z" />
    <glyph glyph-name="n" unicode="n" 
d="M1323 1573q-172 0 -299 -115t-127 -299v-733h188q107 0 107 -152v-127q0 -147 -111 -147h-831q-111 0 -111 147v127q0 152 107 152h184v1122h-184q-111 0 -111 148v127q0 147 107 147h598q57 0 57 -41v-106h37q98 102 217 149t303 47q234 0 406 -102t260 -272t88 -359
v-860h192q107 0 107 -152v-127q0 -147 -111 -147h-819q-111 0 -111 147v127q0 152 107 152h168v758q0 159 -125 274t-293 115z" />
    <glyph glyph-name="o" unicode="o" 
d="M655 967q0 -246 194.5 -414t473.5 -168t473 168q195 168 195 414q0 270 -172 446t-492 176q-319 0 -496 -178q-176 -178 -176 -444zM139 975q0 307 141.5 544.5t407.5 364.5t623 127h20q357 0 625 -127t409 -364q142 -238 142 -545q0 -303 -144 -535q-143 -231 -409 -354
t-611 -123h-45q-348 0 -612 123t-405 354q-142 232 -142 535z" />
    <glyph glyph-name="p" unicode="p" 
d="M856 942q0 -237 182 -385q183 -147 412 -147t407.5 170t178.5 395q0 237 -178.5 405t-415.5 168q-254 0 -420 -157.5t-166 -448.5zM98 -610q0 143 107 143h184v2015h-188q-103 0 -103 148v127q0 147 107 147h590q61 0 61 -49v-106l21 -13q86 111 264 160t350 49
q291 0 534 -129q244 -129 383 -364q140 -236 140 -535v-4q0 -274 -125 -510t-367 -373q-241 -137 -565 -137h-8q-189 0 -363 39t-243 133h-21v-598h565q103 0 103 -147v-127q0 -148 -94 -148h-1229q-103 0 -103 152v127z" />
    <glyph glyph-name="q" unicode="q" 
d="M2548 -610v-127q0 -152 -107 -152h-1224q-95 0 -95 148v127q0 147 103 147h565v627h-29q-90 -90 -266 -146q-176 -55 -332 -55h-12q-324 0 -565.5 137t-366.5 373t-125 510v4q0 299 141.5 534.5t385 364.5t534.5 129q180 0 336 -55t278 -154l21 13v106q0 49 61 49h586
q111 0 111 -147v-127q0 -148 -107 -148h-184v-2015h180q111 0 111 -143zM610 975q0 -230 178 -397q179 -168 408 -168t412 147q182 148 182 385q0 291 -168 448.5t-422 157.5q-237 0 -414 -168q-176 -168 -176 -405z" />
    <glyph glyph-name="r" unicode="r" 
d="M270 0q-106 0 -106 147v127q0 152 106 152h435v1122h-349q-106 0 -106 148v127q0 147 102 147h762q57 0 57 -41v-266h25q131 139 329.5 245.5t411.5 106.5h189q143 0 249.5 -71.5t106.5 -174.5v-176q0 -163 -147 -163h-189q-45 0 -147 61q-98 61 -184 61
q-144 0 -355 -178t-289 -321v-627h754q103 0 103 -152v-127q0 -147 -111 -147h-1647z" />
    <glyph glyph-name="s" unicode="s" 
d="M1225 2019q147 0 307 -37q160 -36 217 -36q37 0 74 28q41 29 49 29h246q73 0 73 -90l13 -541q0 -86 -86 -86h-205q-25 0 -98 74q-99 168 -230 223t-332 55h-45q-131 0 -254 -53t-123 -160q0 -106 129.5 -145t292.5 -39h283q221 0 393 -53t275 -193q102 -139 102 -372
q0 -246 -108 -396q-109 -149 -302 -211q-192 -61 -450 -61h-21q-159 0 -331 41q-176 41 -275 41q-41 0 -78 -37q-36 -37 -69 -37h-217q-115 0 -115 139v508q0 123 98 123h234q61 0 61 -49q0 -147 197 -246q196 -98 426 -98q155 0 313 57q158 58 158 172q0 107 -113 148
q-112 41 -248 41h-303q-233 0 -420 61q-186 62 -290.5 201t-104.5 348q0 225 84 368.5t276.5 213t516.5 69.5z" />
    <glyph glyph-name="t" unicode="t" 
d="M786 2646h258q103 0 103 -135v-541h930q106 0 106 -151v-127q0 -172 -110 -172h-926v-787q0 -131 106 -227q107 -96 238 -96h4q111 0 365 118q254 115 315 115h225q90 0 90 -123v-180q0 -94 -118 -164q-156 -86 -381 -158q-226 -71 -377 -71h-238q-315 0 -506 174
q-190 174 -190 452v947h-410q-114 0 -114 159v140q0 151 102 151h422v557q0 119 106 119z" />
    <glyph glyph-name="u" unicode="u" 
d="M225 1548q-110 0 -110 148v127q0 147 106 147h570q86 0 86 -86v-1093q0 -173 118 -283q119 -111 328 -111q172 0 307 129t135 277v745h-331q-107 0 -107 148v127q0 147 103 147h700q102 0 102 -102v-1442h189q102 0 102 -152v-127q0 -147 -106 -147h-578q-74 0 -74 57
v111h-16q-111 -94 -246 -152q-135 -57 -303 -57h-8q-234 0 -412 80t-274 229q-96 150 -96 338v942h-185z" />
    <glyph glyph-name="v" unicode="v" 
d="M147 1970h877q106 0 106 -143v-127q0 -148 -106 -148h-180l459 -991l495 991h-246q-110 0 -110 148v127q0 143 106 143h955q102 0 102 -147v-127q0 -144 -106 -144h-177l-753 -1523q-41 -82 -148 -82h-258q-102 0 -131 69l-729 1536h-156q-110 0 -110 144v127
q0 147 110 147z" />
    <glyph glyph-name="w" unicode="w" 
d="M1196 1475h254q90 0 90 -74l221 -750l234 901h-230q-106 0 -106 144v127q0 147 102 147h770q107 0 107 -151v-127q0 -140 -111 -140h-65l-434 -1507q-25 -98 -136 -98h-245q-95 0 -95 90l-229 774l-229 -774q0 -90 -95 -90h-245q-111 0 -136 98l-425 1507h-78
q-107 0 -107 140v127q0 151 107 151h770q102 0 102 -147v-127q0 -144 -106 -144h-209l213 -901l221 750q0 74 90 74z" />
    <glyph glyph-name="x" unicode="x" 
d="M270 1548q-110 0 -110 148v127q0 147 106 147h836q102 0 102 -147v-127q0 -148 -135 -148l274 -241l254 241h-49q-110 0 -110 148v127q0 147 106 147h836q106 0 106 -147v-127q0 -148 -110 -148h-168l-557 -532l692 -590h86q102 0 102 -152v-127q0 -147 -106 -147h-836
q-106 0 -106 147v127q0 152 102 152h74l-324 270l-307 -270h57q107 0 107 -152v-127q0 -147 -111 -147h-864q-106 0 -106 147v127q0 152 102 152h176l643 582l-622 540h-140z" />
    <glyph glyph-name="y" unicode="y" 
d="M184 1970h893q107 0 107 -147v-127q0 -148 -111 -148h-196l471 -897l487 897h-193q-110 0 -110 148v127q0 147 106 147h828q106 0 106 -147v-127q0 -148 -110 -148h-103l-1093 -2015h221q102 0 102 -147v-127q0 -148 -102 -148h-1245q-111 0 -111 152v127q0 143 102 143
h500l336 623l-758 1392h-123q-110 0 -110 148v127q0 147 106 147z" />
    <glyph glyph-name="z" unicode="z" 
d="M586 1970h1515q176 0 176 -155v-234q0 -74 -73 -135l-1151 -1020h786v229q0 136 103 136h233q102 0 102 -107v-569q0 -115 -147 -115h-1618q-147 0 -147 115v262q0 49 45 90l1192 1085h-754v-237q0 -127 -115 -127h-205q-118 0 -118 115v552q0 115 176 115z" />
    <glyph glyph-name="braceleft" unicode="{" 
d="M659 1106q181 8 318 90t137 279v507q0 222 164 383q164 162 385 162h311q127 0 127 -119v-229q0 -102 -135 -111q-160 -8 -254 -86q-94 -77 -94 -188v-512q0 -123 -53.5 -233.5t-171.5 -167.5v-37q118 -62 171.5 -172.5t53.5 -233.5v-508q0 -110 96 -190t252 -88
q135 0 135 -107v-229q0 -123 -127 -123h-311q-217 0 -383 164t-166 381v512q0 196 -137 278t-318 90q-118 0 -118 115v254q0 119 118 119z" />
    <glyph glyph-name="bar" unicode="|" 
d="M1196 3437h250q131 0 131 -78v-4395q0 -86 -119 -86h-270q-119 0 -119 73v4387q0 99 127 99z" />
    <glyph glyph-name="braceright" unicode="}" 
d="M1532 1475q0 -197 135 -279t315 -90q123 0 123 -119v-254q0 -115 -123 -115q-180 -8 -315 -90t-135 -278v-512q0 -217 -166 -381t-387 -164h-311q-123 0 -123 123v229q0 107 135 107q156 8 252 88t96 190v508q0 123 53 234q54 110 172 172v37q-118 57 -172 168
q-53 110 -53 233v512q0 111 -96 188q-96 78 -252 86q-135 9 -135 111v229q0 119 123 119h311q221 0 387 -162q166 -161 166 -383v-507z" />
    <glyph glyph-name="asciitilde" unicode="~" 
d="M2056 2851h221q78 0 78 -86v-139q0 -181 -155.5 -316t-454.5 -135q-303 0 -569 70q-271 65 -299 65q-66 0 -164.5 -94t-130.5 -94h-217q-78 0 -78 73v156q0 164 149 303q150 139 490 139q258 0 499 -61q242 -66 304 -66q131 0 225 95q98 90 102 90z" />
    <glyph glyph-name="nbspace.0" unicode="&#xa0;" 
 />
    <glyph glyph-name="Adieresis" unicode="&#xa1;" 
d="M590 3219v119q0 123 110 123h226q102 0 102 -139q0 -98 88 -182t215 -84q123 0 205 77q82 78 82 189q0 135 106 135h226q102 0 102 -111v-122q0 -230 -186.5 -396t-538.5 -166h-8q-356 0 -543 160q-186 160 -186 397zM135 2527h967q102 0 102 -135v-164q0 -135 -106 -135
h-176l454 -844l389 844h-151q-107 0 -107 131v164q0 139 111 139h881q106 0 106 -139v-164q0 -131 -106 -131h-205l-840 -1737q-94 -200 -223 -297q-129 -96 -326 -96h-364q-111 0 -111 152v172q0 147 111 147h229q107 0 199 110.5t92 172.5l8 45l-721 1331h-201
q-110 0 -110 131v164q0 139 98 139z" />
    <glyph glyph-name="Aring" unicode="&#xa2;" 
d="M1311 2073q-287 0 -475 155q-189 156 -189 340v115q0 110 58 110h245q78 0 111 -127q57 -208 262 -217q205 9 262 217q33 127 111 127h246q57 0 57 -110v-115q0 -184 -193 -340q-192 -155 -495 -155zM184 1970h893q107 0 107 -147v-127q0 -148 -111 -148h-196l471 -897
l487 897h-193q-110 0 -110 148v127q0 147 106 147h828q106 0 106 -147v-127q0 -148 -110 -148h-103l-1093 -2015h221q102 0 102 -147v-127q0 -148 -102 -148h-1245q-111 0 -111 152v127q0 143 102 143h500l336 623l-758 1392h-123q-110 0 -110 148v127q0 147 106 147z" />
    <glyph glyph-name="Ccedilla" unicode="&#xa3;" horiz-adv-x="2626" 
d="M0 0v2626h2626v-2626h-2626z" />
    <glyph glyph-name="Eacute" unicode="&#xa4;" horiz-adv-x="2626" 
d="M0 0v2626h2626v-2626h-2626z" />
    <glyph glyph-name="Ntilde" unicode="&#xa5;" 
d="M160 135v164q0 135 110 135h320v1659h-324q-110 0 -110 135v164q0 135 106 135h1778v545q0 102 135 102h180q135 0 135 -106v-868q0 -107 -110 -107h-1307v-1659h459q110 0 110 -135v-164q0 -135 -110 -135h-1262q-110 0 -110 135z" />
    <glyph glyph-name="Odieresis" unicode="&#xa6;" horiz-adv-x="2626" 
d="M0 0v2626h2626v-2626h-2626z" />
    <glyph glyph-name="Udieresis" unicode="&#xa7;" 
d="M1839 639q33 -21 66 -21q57 0 106 33q12 25 12 58q0 82 -127 159l-987 602q-61 41 -131 41q-94 0 -94 -94q0 -90 147 -176zM2462 578q-25 -164 -111 -252t-250 -133l8 -115v-37q0 -209 -176 -338t-409 -129h-901q-177 0 -177 123v385q0 176 156 176h217q135 0 135 -143
v-95h541q123 0 131 99v20q0 103 -164 193l-901 516q-155 90 -237 227t-82 297q0 17 4 45q4 29 4 41q20 189 143 311q123 123 287 132l-25 159l-4 62q0 192 151.5 302.5t356.5 110.5h909q164 0 164 -131v-462q0 -115 -106 -115h-246q-127 0 -127 115v159h-524
q-139 0 -139 -131q0 -123 106 -168l938 -553q176 -123 256 -243.5t80 -288.5q0 -41 -8 -139z" />
    <glyph glyph-name="aacute" unicode="&#xa8;" 
d="M1876 3502q172 0 276 -108q105 -109 105 -281q0 -168 -115 -277q-114 -108 -282 -108q-164 0 -265 100q-100 101 -100 273q0 168 109 284q108 117 272 117zM852 3502q172 0 276 -108q105 -109 105 -281q0 -168 -115 -277q-114 -108 -282 -108q-164 0 -265 100
q-100 101 -100 273q0 168 109 284q108 117 272 117zM2376 0h-2102q-106 0 -106 135v164q0 135 106 135h283v1659h-287q-106 0 -106 135v164q0 135 106 135h2110q102 0 102 -98v-791q0 -122 -143 -122h-176q-131 0 -131 135v442h-992v-512h402v209q0 102 131 102h164
q131 0 131 -102v-836q0 -106 -135 -106h-164q-127 0 -127 110v213h-402v-737h992v500q0 115 127 115h184q139 0 139 -119v-832q0 -98 -106 -98z" />
    <glyph glyph-name="agrave" unicode="&#xa9;" 
d="M1282 2392q-266 0 -489.5 -143.5t-352.5 -383t-129 -505.5t131 -494q131 -227 360.5 -358t495.5 -131q267 0 494 135t360 367q134 231 134 501q0 258 -136 494q-135 235 -364.5 376.5t-491.5 141.5h-12zM1290 2585q316 0 592 -162q277 -162 438 -438q162 -277 162 -592
v-9q0 -315 -155.5 -593.5t-430.5 -442.5q-274 -164 -602 -164q-311 0 -585.5 160t-434.5 436q-159 277 -159 596q0 316 155 596q156 281 426 447q271 166 590 166h4zM1823 1655q-17 -90 -111 -90q-110 0 -127 90q-12 90 -88 180t-211 90q-205 0 -313 -158
q-109 -157 -109 -415q0 -185 123 -348.5t307 -163.5q156 0 344 139q37 33 95 33q73 0 98 -45q24 -41 24 -86q0 -29 -8 -50q-57 -86 -237 -161.5t-336 -75.5q-209 0 -365 102q-155 103 -235 271t-80 352v65q0 197 73.5 371t229.5 280.5t373 106.5q119 0 196 -41
q82 -41 119 -41q29 0 53 29q25 29 91 29q94 0 94 -78v-385z" />
    <glyph glyph-name="acircumflex" unicode="&#xaa;" 
d="M1397 442q180 0 303 55.5t344 207.5q86 45 135 45h119q164 0 164 -132v-135q0 -102 -103 -209q-205 -163 -440.5 -239t-583.5 -76h-24q-357 0 -627 168t-414 469q-143 301 -143 682l-4 8q0 369 155.5 674t436 479t628.5 174q213 0 369 -57q156 -62 180 -62q37 0 74 46
q41 40 70 40h262q106 0 106 -147v-799q0 -123 -118 -123h-213q-91 0 -168 246q-62 209 -187 305q-125 97 -338 101q-295 0 -491.5 -219.5t-196.5 -391.5h459v177q0 114 86 114h262q70 0 70 -114v-730q0 -131 -78 -131h-254q-86 0 -86 131v144h-471q4 -217 227 -459t490 -242
z" />
    <glyph glyph-name="adieresis" unicode="&#xab;" 
d="M1634 1622q25 57 123 57q33 0 82 -16q107 -41 107 -135q0 -21 -9 -45l-274 -525l262 -503q8 -17 8 -37q0 -90 -94 -148q-41 -28 -123 -28q-86 0 -102 37l-324 679zM1139 123q-33 -17 -86 -17q-127 0 -156 58l-348 794l438 803q37 70 168 70q41 0 66 -12q114 -66 114 -156
q0 -16 -8 -41l-360 -655l282 -615q8 -16 8 -45q0 -119 -118 -184z" />
    <glyph glyph-name="atilde" unicode="&#xac;" horiz-adv-x="2626" 
d="M0 0v2626h2626v-2626h-2626z" />
    <glyph glyph-name="aring" unicode="&#xad;" 
d="M348 1257h1946q78 0 78 -73v-393q0 -91 -74 -91h-1954q-74 0 -74 82v406q0 69 78 69z" />
    <glyph glyph-name="ccedilla" unicode="&#xae;" 
d="M1274 2392q-266 0 -492 -143q-225 -144 -354 -383.5t-129 -509.5q0 -262 131 -490q131 -227 360.5 -358t495.5 -131t495.5 135t362.5 366.5t133 501.5q0 258 -135 493.5t-366.5 377t-493.5 141.5h-8zM1274 2585q315 0 593.5 -162t440.5 -438.5t162 -591.5v-9
q0 -315 -156 -593q-155 -279 -430 -443q-274 -164 -602 -164q-311 0 -584 160q-272 160 -432 436q-160 277 -160 592v4q0 316 154 596q154 281 426 447t592 166h-4zM1126 1876v-385h217q164 0 164 188q0 197 -151 197h-230zM737 2093h656q184 0 270 -121t86 -289
q0 -147 -66 -251q-65 -105 -176 -125q78 -82 133 -158q56 -76 138 -211h82q57 0 57 -111q0 -110 -57 -110h-242q-111 192 -209 327q-98 136 -201 226h-86v-332h131q45 0 54 -111q0 -110 -58 -110h-512q-53 0 -53 102q0 119 53 119h140v942h-140q-49 0 -53 102q0 111 53 111z
" />
    <glyph glyph-name="eacute" unicode="&#xaf;" 
d="M1876 3502q172 0 276 -108q105 -109 105 -281q0 -168 -115 -277q-114 -108 -282 -108q-164 0 -265 98q-100 99 -108 262l-4 13q0 168 114 284q115 117 279 117zM852 3502q172 0 276 -108q105 -109 105 -281q0 -168 -115 -277q-114 -108 -282 -108q-164 0 -265 98
q-100 99 -108 262l-4 13q0 168 114 284q115 117 279 117zM348 2228v164q0 135 107 135h1736q103 0 103 -135v-164q0 -135 -107 -135h-622v-1659h618q107 0 107 -135v-164q0 -135 -111 -135h-1716q-111 0 -111 135v164q0 135 111 135h618v1659h-622q-111 0 -111 135z" />
    <glyph glyph-name="egrave" unicode="&#xb0;" 
d="M1159 2429q-151 0 -244 -102q-92 -103 -92 -246q0 -144 90 -244q86 -96 246 -96h12q168 4 252 102q84 99 84 246q0 143 -98 241.5t-250 98.5zM1159 2732q279 0 467 -192q189 -193 189 -459q0 -271 -177 -457q-176 -186 -467 -190h-8q-4 -4 -8 -4q-283 0 -457 192
q-174 193 -174 459q0 262 181 456q180 195 454 195z" />
    <glyph glyph-name="ecircumflex" unicode="&#xb1;" horiz-adv-x="2626" 
d="M0 0v2626h2626v-2626h-2626z" />
    <glyph glyph-name="edieresis" unicode="&#xb2;" horiz-adv-x="2626" 
d="M0 0v2626h2626v-2626h-2626z" />
    <glyph glyph-name="iacute" unicode="&#xb3;" horiz-adv-x="2626" 
d="M0 0v2626h2626v-2626h-2626z" />
    <glyph glyph-name="igrave" unicode="&#xb4;" horiz-adv-x="2626" 
d="M0 0v2626h2626v-2626h-2626z" />
    <glyph glyph-name="icircumflex" unicode="&#xb5;" 
 />
    <glyph glyph-name="idieresis" unicode="&#xb6;" 
d="M1249 2535h983q82 0 82 -131q0 -139 -86 -139h-217v-2285h291q65 0 65 -132q0 -139 -57 -139h-549v2556h-221l4 -2556h-737q-82 0 -90 135q0 136 86 136h500v1064q-246 0 -461 72t-350.5 233.5t-135.5 407.5q0 225 129 401.5t336 272.5t428 104z" />
    <glyph glyph-name="ntilde" unicode="&#xb8;" 
d="M856 2974q164 0 264 -105q101 -104 101 -272q0 -160 -111 -262.5t-270 -102.5q-156 0 -254.5 94.5t-102.5 253.5q0 5 -4 9q0 164 111 274q110 111 266 111zM1876 2974q164 0 264 -105q101 -104 101 -272q0 -160 -111 -262.5t-270 -102.5q-156 0 -254.5 94.5t-102.5 253.5
q0 5 -4 9q0 164 109 274q108 111 268 111zM709 1212h1200q-58 172 -217.5 283t-348.5 111q-217 0 -389 -101q-172 -100 -245 -293zM1348 2019q319 0 575 -121q256 -120 399 -327q144 -207 144 -449v-200q0 -131 -144 -131h-1642q65 -213 242 -312q176 -98 389 -98
q205 0 487 131q283 131 320 131h233q98 0 98 -90v-229q-94 -107 -264 -189t-399.5 -127t-487.5 -45q-348 0 -600 110.5t-385 332t-133 528.5q0 356 137 602q138 246 402 364.5t629 118.5z" />
    <glyph glyph-name="oacute" unicode="&#xb9;" 
d="M1925 430h520q111 0 111 -139v-164q0 -131 -107 -131h-524q-110 0 -110 135v164q0 135 110 135zM229 430v1659h-61q-111 0 -111 135v164q0 135 107 135h504q57 0 135 -119l508 -1339v1024h-70q-111 0 -111 135v164q0 135 111 135h651q107 0 107 -139v-164
q0 -135 -107 -135h-147v-2056q0 -66 -49 -66h-348q-37 0 -70 66l-610 1577v-1176h172q110 0 110 -139v-164q0 -131 -106 -131h-676q-111 0 -111 135v164q0 135 111 135h61zM2204 1585q-74 0 -101 -102q-26 -103 -26 -258q0 -160 28 -258q29 -99 107 -99q127 0 127 275v82
q-4 168 -33 264t-102 96zM2204 1782q188 0 282 -152q94 -151 94 -405q0 -262 -90 -414t-274 -156h-12q-176 0 -275 160q-98 160 -98 406q0 254 94 407q94 154 279 154z" />
    <glyph glyph-name="ograve" unicode="&#xba;" 
d="M1266 2019q278 0 419.5 -43t256.5 -129l-5 21q0 123 99 123h217q114 0 114 -131v-668q0 -90 -86 -90h-249q-70 0 -99 74q-78 196 -254 302.5t-397 106.5q-192 0 -364.5 -125t-196.5 -272h864q111 0 111 -90v-246q0 -74 -111 -74h-860q33 -209 172 -284.5t389 -75.5
q295 0 516 163.5t295 163.5h156q131 0 131 -114v-164q0 -74 -41 -115q-234 -192 -457 -291q-223 -98 -583 -98h-17q-282 0 -534 108.5t-410 344t-158 583.5q0 299 135 533q136 233 383 360q248 127 564 127z" />
    <glyph glyph-name="ocircumflex" unicode="&#xbb;" 
d="M1008 1622l344 -664l-324 -679q-16 -37 -106 -37q-74 0 -119 28q-98 62 -98 148q0 12 12 37l258 503l-270 525q-5 12 -9 20q-4 17 -4 25q0 94 111 135q41 16 78 16q102 0 127 -57zM1503 123q-123 70 -123 184q0 21 13 45l278 615l-356 655v-4h2q-2 0 -10 24q-4 13 -4 21
q0 86 118 156q21 12 62 12q139 0 172 -70l438 -803l-352 -794q-21 -58 -156 -58q-49 0 -82 17z" />
    <glyph glyph-name="odieresis" unicode="&#xbc;" horiz-adv-x="2626" 
d="M0 0v2626h2626v-2626h-2626z" />
    <glyph glyph-name="otilde" unicode="&#xbd;" horiz-adv-x="2626" 
d="M0 0v2626h2626v-2626h-2626z" />
    <glyph glyph-name="uacute" unicode="&#xbe;" horiz-adv-x="2626" 
d="M0 0v2626h2626v-2626h-2626z" />
    <glyph glyph-name="ugrave" unicode="&#xbf;" 
d="M680 2974q164 0 264 -103q100 -102 100 -270q0 -160 -108.5 -262.5t-271.5 -102.5q-156 0 -254.5 94.5t-102.5 254.5l-4 8q0 164 111 272q110 109 266 109zM1700 2974q164 0 264 -103q100 -102 100 -270q0 -160 -110.5 -262.5t-270.5 -102.5q-155 0 -253.5 94.5
t-102.5 254.5l-4 8q0 164 111 272q110 109 266 109zM1077 426v1118h-479q-106 0 -106 148v127q0 151 98 151h876q70 0 70 -82v-1462h745q107 0 107 -147v-127q0 -152 -107 -152h-1916q-107 0 -107 147v127q0 152 102 152h717z" />
    <glyph glyph-name="Agrave.0" unicode="&#xc0;" 
d="M1311 1974l-295 -803h602zM479 2527h1045q86 0 139 -151l778 -1942h70q110 0 110 -135v-164q0 -135 -110 -135h-905q-107 0 -107 135v164q0 135 107 135h270l-107 299h-901l-106 -299h291q110 0 110 -135v-164q0 -135 -110 -135h-922q-106 0 -106 135v164q0 135 106 135
h111l626 1659h-385q-110 0 -110 135v164q0 135 106 135z" />
    <glyph glyph-name="Agrave.0" unicode="&#x410;" 
d="M1311 1974l-295 -803h602zM479 2527h1045q86 0 139 -151l778 -1942h70q110 0 110 -135v-164q0 -135 -110 -135h-905q-107 0 -107 135v164q0 135 107 135h270l-107 299h-901l-106 -299h291q110 0 110 -135v-164q0 -135 -110 -135h-922q-106 0 -106 135v164q0 135 106 135
h111l626 1659h-385q-110 0 -110 135v164q0 135 106 135z" />
    <glyph glyph-name="ucircumflex" unicode="&#xc1;" 
d="M1946 778q0 127 -115 235.5t-258 108.5h-516v-684h528q148 0 254 105q107 104 107 235zM2417 1761q0 -106 -103 -106h-250q-98 0 -98 114v324h-913v-528h581q201 0 399.5 -92.5t325.5 -268.5t127 -413q0 -254 -127 -435q-127 -180 -325.5 -268t-411.5 -88h-1364
q-106 0 -106 135v164q0 139 110 139h316v1655h-312q-110 0 -110 135v164q0 135 110 135h2048q103 0 103 -98v-668z" />
    <glyph glyph-name="ucircumflex" unicode="&#x411;" 
d="M1946 778q0 127 -115 235.5t-258 108.5h-516v-684h528q148 0 254 105q107 104 107 235zM2417 1761q0 -106 -103 -106h-250q-98 0 -98 114v324h-913v-528h581q201 0 399.5 -92.5t325.5 -268.5t127 -413q0 -254 -127 -435q-127 -180 -325.5 -268t-411.5 -88h-1364
q-106 0 -106 135v164q0 139 110 139h316v1655h-312q-110 0 -110 135v164q0 135 110 135h2048q103 0 103 -98v-668z" />
    <glyph glyph-name="Acircumflex" unicode="&#xc2;" 
d="M946 2089v-569h561q115 0 213 88q99 88 99 198v9q0 114 -107 194q-106 80 -229 80h-537zM123 135v164q0 139 110 139h230v1651h-230q-110 0 -110 139v164q0 135 110 135h1393q299 0 506 -178t207 -436v-12q0 -189 -96.5 -336.5t-255.5 -192.5v-41q196 -37 360 -190.5
t164 -415.5q0 -225 -115 -391t-295 -250t-360 -84h-1508q-110 0 -110 135zM1974 745v9q0 127 -125 227t-264 100h-639v-643h635q143 0 268 86t125 221z" />
    <glyph glyph-name="Acircumflex" unicode="&#x412;" 
d="M946 2089v-569h561q115 0 213 88q99 88 99 198v9q0 114 -107 194q-106 80 -229 80h-537zM123 135v164q0 139 110 139h230v1651h-230q-110 0 -110 139v164q0 135 110 135h1393q299 0 506 -178t207 -436v-12q0 -189 -96.5 -336.5t-255.5 -192.5v-41q196 -37 360 -190.5
t164 -415.5q0 -225 -115 -391t-295 -250t-360 -84h-1508q-110 0 -110 135zM1974 745v9q0 127 -125 227t-264 100h-639v-643h635q143 0 268 86t125 221z" />
    <glyph glyph-name="udieresis" unicode="&#xc3;" 
d="M160 135v164q0 135 110 135h320v1659h-324q-110 0 -110 135v164q0 135 106 135h2118q110 0 110 -102v-873q0 -106 -135 -106h-180q-135 0 -135 102v545h-967v-1659h459q110 0 110 -135v-164q0 -135 -110 -135h-1262q-110 0 -110 135z" />
    <glyph glyph-name="udieresis" unicode="&#x413;" 
d="M160 135v164q0 135 110 135h320v1659h-324q-110 0 -110 135v164q0 135 106 135h2118q110 0 110 -102v-873q0 -106 -135 -106h-180q-135 0 -135 102v545h-967v-1659h459q110 0 110 -135v-164q0 -135 -110 -135h-1262q-110 0 -110 135z" />
    <glyph glyph-name="dagger" unicode="&#xc4;" 
d="M1090 1024q0 -131 -54 -305q-53 -174 -131 -281h869v1651h-684v-1065zM332 2527h2072q103 0 103 -131v-164q0 -143 -107 -143h-143v-1651h176q74 0 74 -73v-947q0 -102 -148 -102h-159q-148 0 -148 102v582h-1462v-582q0 -102 -144 -102h-163q-144 0 -144 102v947
q0 73 74 73h131q98 0 180 229.5t82 430.5v991h-274q-107 0 -107 147v164q0 127 107 127z" />
    <glyph glyph-name="dagger" unicode="&#x414;" 
d="M1090 1024q0 -131 -54 -305q-53 -174 -131 -281h869v1651h-684v-1065zM332 2527h2072q103 0 103 -131v-164q0 -143 -107 -143h-143v-1651h176q74 0 74 -73v-947q0 -102 -148 -102h-159q-148 0 -148 102v582h-1462v-582q0 -102 -144 -102h-163q-144 0 -144 102v947
q0 73 74 73h131q98 0 180 229.5t82 430.5v991h-274q-107 0 -107 147v164q0 127 107 127z" />
    <glyph glyph-name="Aring.0" unicode="&#xc5;" 
d="M2376 0h-2102q-106 0 -106 135v164q0 135 106 135h283v1659h-287q-106 0 -106 135v164q0 135 106 135h2110q102 0 102 -98v-791q0 -122 -143 -122h-176q-131 0 -131 135v442h-992v-512h402v209q0 102 131 102h164q131 0 131 -102v-836q0 -106 -135 -106h-164
q-127 0 -127 110v213h-402v-737h992v500q0 115 127 115h184q139 0 139 -119v-832q0 -98 -106 -98z" />
    <glyph glyph-name="Aring.0" unicode="&#x415;" 
d="M2376 0h-2102q-106 0 -106 135v164q0 135 106 135h283v1659h-287q-106 0 -106 135v164q0 135 106 135h2110q102 0 102 -98v-791q0 -122 -143 -122h-176q-131 0 -131 135v442h-992v-512h402v209q0 102 131 102h164q131 0 131 -102v-836q0 -106 -135 -106h-164
q-127 0 -127 110v213h-402v-737h992v500q0 115 127 115h184q139 0 139 -119v-832q0 -98 -106 -98z" />
    <glyph glyph-name="degree" unicode="&#xc6;" 
d="M1106 1073h-156q-82 -115 -145.5 -291t-206.5 -684q-37 -98 -94 -98h-385q-111 0 -111 115v204q0 115 152 115h53q213 811 405 955l-319 692q-12 33 -127 57q-106 25 -106 94v201q0 94 102 94h582q90 0 90 -110v-193q0 -123 -70 -123h-57l307 -647h86v647h-33
q-115 0 -115 127v197q0 102 95 102h536q99 0 99 -102v-197q0 -127 -115 -127h-33v-647h86l307 647h-57q-70 0 -70 123v193q0 110 86 110h586q102 0 102 -94v-201q0 -69 -102 -94q-119 -24 -131 -57l-319 -692q188 -144 405 -955h49q156 0 156 -115v-204q0 -115 -115 -115
h-381q-69 0 -94 98q-143 508 -207 684q-63 176 -145 291h-156v-639h86q107 0 107 -127v-196q0 -111 -107 -111h-606q-107 0 -107 111v196q0 127 107 127h86v639z" />
    <glyph glyph-name="degree" unicode="&#x416;" 
d="M1106 1073h-156q-82 -115 -145.5 -291t-206.5 -684q-37 -98 -94 -98h-385q-111 0 -111 115v204q0 115 152 115h53q213 811 405 955l-319 692q-12 33 -127 57q-106 25 -106 94v201q0 94 102 94h582q90 0 90 -110v-193q0 -123 -70 -123h-57l307 -647h86v647h-33
q-115 0 -115 127v197q0 102 95 102h536q99 0 99 -102v-197q0 -127 -115 -127h-33v-647h86l307 647h-57q-70 0 -70 123v193q0 110 86 110h586q102 0 102 -94v-201q0 -69 -102 -94q-119 -24 -131 -57l-319 -692q188 -144 405 -955h49q156 0 156 -115v-204q0 -115 -115 -115
h-381q-69 0 -94 98q-143 508 -207 684q-63 176 -145 291h-156v-639h86q107 0 107 -127v-196q0 -111 -107 -111h-606q-107 0 -107 111v196q0 127 107 127h86v639z" />
    <glyph glyph-name="cent" unicode="&#xc7;" 
d="M1376 2568q226 0 420 -57q195 -57 320 -207t125 -399q0 -238 -91 -361q-90 -123 -282 -180v-37q200 -49 321 -207q121 -157 121 -456q0 -250 -121 -408t-346 -227.5t-549 -69.5h-20q-328 0 -488 35q-159 35 -282 117q-172 73 -172 278q0 123 51 180q51 58 203 58
q119 0 315 -107q197 -110 385 -110q189 0 348 88q160 88 160 247q0 140 -143.5 238t-286.5 98h-217q-127 0 -127 90v259q0 90 102 90h217q152 0 271 94t119 229q0 115 -111 199t-287 84h-8q-172 0 -319.5 -86t-147.5 -238q0 -164 -164 -164h-229q-115 0 -115 103v655
q0 148 123 148h246q98 0 98 -107h45q90 53 229.5 92t286.5 39z" />
    <glyph glyph-name="cent" unicode="&#x417;" 
d="M1376 2568q226 0 420 -57q195 -57 320 -207t125 -399q0 -238 -91 -361q-90 -123 -282 -180v-37q200 -49 321 -207q121 -157 121 -456q0 -250 -121 -408t-346 -227.5t-549 -69.5h-20q-328 0 -488 35q-159 35 -282 117q-172 73 -172 278q0 123 51 180q51 58 203 58
q119 0 315 -107q197 -110 385 -110q189 0 348 88q160 88 160 247q0 140 -143.5 238t-286.5 98h-217q-127 0 -127 90v259q0 90 102 90h217q152 0 271 94t119 229q0 115 -111 199t-287 84h-8q-172 0 -319.5 -86t-147.5 -238q0 -164 -164 -164h-229q-115 0 -115 103v655
q0 148 123 148h246q98 0 98 -107h45q90 53 229.5 92t286.5 39z" />
    <glyph glyph-name="sterling" unicode="&#xc8;" 
d="M1761 2093h-254q-110 0 -110 135v164q0 135 110 135h877q106 0 106 -135v-164q0 -135 -110 -135h-139v-1659h135q110 0 110 -135v-164q0 -135 -110 -135h-873q-110 0 -110 135v164q0 135 110 135h258v1004l-876 -873v-131h258q110 0 110 -135v-164q0 -135 -110 -135h-873
q-110 0 -110 135v164q0 135 110 135h136v1659h-140q-110 0 -110 135v164q0 135 106 135h877q110 0 110 -135v-164q0 -135 -110 -135h-254v-983l876 872v111z" />
    <glyph glyph-name="sterling" unicode="&#x418;" 
d="M1761 2093h-254q-110 0 -110 135v164q0 135 110 135h877q106 0 106 -135v-164q0 -135 -110 -135h-139v-1659h135q110 0 110 -135v-164q0 -135 -110 -135h-873q-110 0 -110 135v164q0 135 110 135h258v1004l-876 -873v-131h258q110 0 110 -135v-164q0 -135 -110 -135h-873
q-110 0 -110 135v164q0 135 110 135h136v1659h-140q-110 0 -110 135v164q0 135 106 135h877q110 0 110 -135v-164q0 -135 -110 -135h-254v-983l876 872v111z" />
    <glyph glyph-name="section" unicode="&#xc9;" 
d="M1761 2093h-254q-110 0 -110 135v164q0 135 110 135h877q106 0 106 -135v-164q0 -135 -110 -135h-139v-1659h135q110 0 110 -135v-164q0 -135 -110 -135h-873q-110 0 -110 135v164q0 135 110 135h258v1004l-876 -873v-131h258q110 0 110 -135v-164q0 -135 -110 -135h-873
q-110 0 -110 135v164q0 135 110 135h136v1659h-140q-110 0 -110 135v164q0 135 106 135h877q110 0 110 -135v-164q0 -135 -110 -135h-254v-983l876 872v111zM590 3219v119q0 123 110 123h226q102 0 102 -139q0 -98 88 -182t215 -84q123 0 205 77q82 78 82 189q0 135 106 135
h226q102 0 102 -111v-122q0 -230 -186.5 -396t-538.5 -166h-8q-356 0 -543 160q-186 160 -186 397z" />
    <glyph glyph-name="section" unicode="&#x419;" 
d="M1761 2093h-254q-110 0 -110 135v164q0 135 110 135h877q106 0 106 -135v-164q0 -135 -110 -135h-139v-1659h135q110 0 110 -135v-164q0 -135 -110 -135h-873q-110 0 -110 135v164q0 135 110 135h258v1004l-876 -873v-131h258q110 0 110 -135v-164q0 -135 -110 -135h-873
q-110 0 -110 135v164q0 135 110 135h136v1659h-140q-110 0 -110 135v164q0 135 106 135h877q110 0 110 -135v-164q0 -135 -110 -135h-254v-983l876 872v111zM590 3219v119q0 123 110 123h226q102 0 102 -139q0 -98 88 -182t215 -84q123 0 205 77q82 78 82 189q0 135 106 135
h226q102 0 102 -111v-122q0 -230 -186.5 -396t-538.5 -166h-8q-356 0 -543 160q-186 160 -186 397z" />
    <glyph glyph-name="Ecircumflex" unicode="&#xca;" 
d="M188 2527h967q111 0 111 -135v-164q0 -135 -111 -135h-213v-668l721 668h-147q-107 0 -107 135v164q0 135 107 135h868q106 0 106 -135v-164q0 -135 -110 -135h-156l-688 -635q254 -143 487 -549l279 -475h152q110 0 110 -135v-164q0 -135 -110 -135h-459q-53 0 -119 127
q-98 213 -211 405q-113 193 -240 348.5t-262 241.5l-221 -192v-496h217q111 0 111 -135v-164q0 -135 -111 -135h-966q-107 0 -107 135v164q0 135 107 135h270v1659h-270q-111 0 -111 135v164q0 135 106 135z" />
    <glyph glyph-name="Ecircumflex" unicode="&#x41a;" 
d="M188 2527h967q111 0 111 -135v-164q0 -135 -111 -135h-213v-668l721 668h-147q-107 0 -107 135v164q0 135 107 135h868q106 0 106 -135v-164q0 -135 -110 -135h-156l-688 -635q254 -143 487 -549l279 -475h152q110 0 110 -135v-164q0 -135 -110 -135h-459q-53 0 -119 127
q-98 213 -211 405q-113 193 -240 348.5t-262 241.5l-221 -192v-496h217q111 0 111 -135v-164q0 -135 -111 -135h-966q-107 0 -107 135v164q0 135 107 135h270v1659h-270q-111 0 -111 135v164q0 135 106 135z" />
    <glyph glyph-name="bullet" unicode="&#xcb;" 
d="M369 2527h2052q102 0 102 -135v-164q0 -135 -106 -135h-140v-1659h136q106 0 106 -135v-164q0 -135 -106 -135h-816q-106 0 -106 135v164q0 135 106 135h201v1659h-684v-889q0 -323 -72 -606q-71 -283 -194 -446.5t-266 -163.5h-353q-114 0 -114 143v164q0 139 106 139
h127q123 0 203 235.5t80 547.5v876h-258q-107 0 -107 135v164q0 135 103 135z" />
    <glyph glyph-name="bullet" unicode="&#x41b;" 
d="M369 2527h2052q102 0 102 -135v-164q0 -135 -106 -135h-140v-1659h136q106 0 106 -135v-164q0 -135 -106 -135h-816q-106 0 -106 135v164q0 135 106 135h201v1659h-684v-889q0 -323 -72 -606q-71 -283 -194 -446.5t-266 -163.5h-353q-114 0 -114 143v164q0 139 106 139
h127q123 0 203 235.5t80 547.5v876h-258q-107 0 -107 135v164q0 135 103 135z" />
    <glyph glyph-name="Igrave" unicode="&#xcc;" 
d="M1184 655q-78 0 -123 123l-307 885l-41 -1229h282q111 0 111 -135v-164q0 -135 -111 -135h-868q-102 0 -102 135v164q0 135 106 135h115l57 1659h-135q-102 0 -102 135v164q0 135 106 135h651q99 0 144 -151l376 -1102l361 1102q53 151 139 151h631q106 0 106 -135v-164
q0 -135 -102 -135h-135l57 -1659h111q110 0 110 -135v-164q0 -135 -106 -135h-864q-111 0 -111 135v164q0 135 111 135h295l-50 1221l-311 -877q-45 -123 -123 -123h-278z" />
    <glyph glyph-name="Igrave" unicode="&#x41c;" 
d="M1184 655q-78 0 -123 123l-307 885l-41 -1229h282q111 0 111 -135v-164q0 -135 -111 -135h-868q-102 0 -102 135v164q0 135 106 135h115l57 1659h-135q-102 0 -102 135v164q0 135 106 135h651q99 0 144 -151l376 -1102l361 1102q53 151 139 151h631q106 0 106 -135v-164
q0 -135 -102 -135h-135l57 -1659h111q110 0 110 -135v-164q0 -135 -106 -135h-864q-111 0 -111 135v164q0 135 111 135h295l-50 1221l-311 -877q-45 -123 -123 -123h-278z" />
    <glyph glyph-name="Iacute" unicode="&#xcd;" 
d="M1761 1548v545h-254q-110 0 -110 135v164q0 135 110 135h877q106 0 106 -135v-164q0 -135 -110 -135h-139v-1659h135q110 0 110 -135v-164q0 -135 -110 -135h-873q-110 0 -110 135v164q0 135 110 135h258v680h-876v-680h258q110 0 110 -135v-164q0 -135 -110 -135h-873
q-110 0 -110 135v164q0 135 110 135h136v1659h-140q-110 0 -110 135v164q0 135 106 135h877q110 0 110 -135v-164q0 -135 -110 -135h-254v-545h876z" />
    <glyph glyph-name="Iacute" unicode="&#x41d;" 
d="M1761 1548v545h-254q-110 0 -110 135v164q0 135 110 135h877q106 0 106 -135v-164q0 -135 -110 -135h-139v-1659h135q110 0 110 -135v-164q0 -135 -110 -135h-873q-110 0 -110 135v164q0 135 110 135h258v680h-876v-680h258q110 0 110 -135v-164q0 -135 -110 -135h-873
q-110 0 -110 135v164q0 135 110 135h136v1659h-140q-110 0 -110 135v164q0 135 106 135h877q110 0 110 -135v-164q0 -135 -110 -135h-254v-545h876z" />
    <glyph glyph-name="Icircumflex" unicode="&#xce;" 
d="M627 1274q0 -209 84 -418t245 -342q162 -133 371 -133t368.5 133t241.5 342t82 418t-86 415.5t-245.5 340t-364.5 133.5q-209 0 -369 -131q-159 -131 -243 -340t-84 -418zM94 1274q4 360 129 663q125 304 403.5 486t708.5 182q353 0 631 -151q279 -152 434 -457
q156 -305 156 -727q0 -385 -141.5 -686t-422 -469t-661.5 -168q-418 0 -698.5 182t-409.5 485q-129 304 -129 660z" />
    <glyph glyph-name="Icircumflex" unicode="&#x41e;" 
d="M627 1274q0 -209 84 -418t245 -342q162 -133 371 -133t368.5 133t241.5 342t82 418t-86 415.5t-245.5 340t-364.5 133.5q-209 0 -369 -131q-159 -131 -243 -340t-84 -418zM94 1274q4 360 129 663q125 304 403.5 486t708.5 182q353 0 631 -151q279 -152 434 -457
q156 -305 156 -727q0 -385 -141.5 -686t-422 -469t-661.5 -168q-418 0 -698.5 182t-409.5 485q-129 304 -129 660z" />
    <glyph glyph-name="paragraph" unicode="&#xcf;" 
d="M2384 2527q106 0 106 -135v-164q0 -135 -110 -135h-139v-1659h135q110 0 110 -135v-164q0 -135 -110 -135h-873q-110 0 -110 135v164q0 135 110 135h258v1659h-876v-1659h258q110 0 110 -135v-164q0 -135 -110 -135h-873q-110 0 -110 135v164q0 135 110 135h136v1659
h-140q-110 0 -110 135v164q0 135 106 135h2122z" />
    <glyph glyph-name="paragraph" unicode="&#x41f;" 
d="M2384 2527q106 0 106 -135v-164q0 -135 -110 -135h-139v-1659h135q110 0 110 -135v-164q0 -135 -110 -135h-873q-110 0 -110 135v164q0 135 110 135h258v1659h-876v-1659h258q110 0 110 -135v-164q0 -135 -110 -135h-873q-110 0 -110 135v164q0 135 110 135h136v1659
h-140q-110 0 -110 135v164q0 135 106 135h2122z" />
    <glyph glyph-name="Eth" unicode="&#xd0;" 
d="M1950 1675q0 152 -109 283q-108 131 -256 131h-524v-786h512q147 0 262 112q115 113 115 260zM262 2527h1364q221 0 420 -86t319 -270q121 -184 121 -459q0 -287 -123 -479q-122 -193 -321 -281t-420 -88h-565v-430h520q106 0 106 -135v-164q0 -135 -106 -135h-1307
q-110 0 -110 135v164q0 135 110 135h312v1655h-316q-110 0 -110 139v164q0 135 106 135z" />
    <glyph glyph-name="Eth" unicode="&#x420;" 
d="M1950 1675q0 152 -109 283q-108 131 -256 131h-524v-786h512q147 0 262 112q115 113 115 260zM262 2527h1364q221 0 420 -86t319 -270q121 -184 121 -459q0 -287 -123 -479q-122 -193 -321 -281t-420 -88h-565v-430h520q106 0 106 -135v-164q0 -135 -106 -135h-1307
q-110 0 -110 135v164q0 135 110 135h312v1655h-316q-110 0 -110 139v164q0 135 106 135z" />
    <glyph glyph-name="Ntilde.0" unicode="&#xd1;" 
d="M1368 2605q217 0 373 -57q151 -62 176 -62q37 0 78 45q37 41 65 41h267q106 0 106 -143v-803q0 -119 -119 -119h-213q-98 0 -168 242q-61 209 -184 305t-340 96q-192 0 -358 -112.5t-263 -313.5q-96 -200 -96 -438q0 -250 102.5 -448.5t272.5 -307.5q170 -108 358 -108
q172 0 293 57q121 58 350 217q91 45 136 45h123q163 0 163 -131v-135q0 -102 -102 -205q-205 -164 -442.5 -241.5t-585.5 -77.5h-21q-356 0 -626.5 168t-413.5 471t-143 688q0 369 153 674q154 305 432 479q279 174 627 174z" />
    <glyph glyph-name="Ntilde.0" unicode="&#x421;" 
d="M1368 2605q217 0 373 -57q151 -62 176 -62q37 0 78 45q37 41 65 41h267q106 0 106 -143v-803q0 -119 -119 -119h-213q-98 0 -168 242q-61 209 -184 305t-340 96q-192 0 -358 -112.5t-263 -313.5q-96 -200 -96 -438q0 -250 102.5 -448.5t272.5 -307.5q170 -108 358 -108
q172 0 293 57q121 58 350 217q91 45 136 45h123q163 0 163 -131v-135q0 -102 -102 -205q-205 -164 -442.5 -241.5t-585.5 -77.5h-21q-356 0 -626.5 168t-413.5 471t-143 688q0 369 153 674q154 305 432 479q279 174 627 174z" />
    <glyph glyph-name="Ograve" unicode="&#xd2;" 
d="M2396 2527q86 0 86 -94l21 -1053q0 -106 -140 -106h-159q-152 0 -152 110l-16 709h-471v-1659h475q106 0 106 -135v-164q0 -135 -106 -135h-1434q-106 0 -106 135v164q0 135 106 135h475v1659h-471l-20 -709q0 -110 -148 -110h-163q-136 0 -136 106l21 1053q0 94 86 94
h2146z" />
    <glyph glyph-name="Ograve" unicode="&#x422;" 
d="M2396 2527q86 0 86 -94l21 -1053q0 -106 -140 -106h-159q-152 0 -152 110l-16 709h-471v-1659h475q106 0 106 -135v-164q0 -135 -106 -135h-1434q-106 0 -106 135v164q0 135 106 135h475v1659h-471l-20 -709q0 -110 -148 -110h-163q-136 0 -136 106l21 1053q0 94 86 94
h2146z" />
    <glyph glyph-name="germandbls" unicode="&#xd3;" 
d="M135 2527h967q102 0 102 -135v-164q0 -135 -106 -135h-176l454 -844l389 844h-151q-107 0 -107 131v164q0 139 111 139h881q106 0 106 -139v-164q0 -131 -106 -131h-205l-840 -1737q-94 -200 -223 -297q-129 -96 -326 -96h-364q-111 0 -111 152v172q0 147 111 147h229
q107 0 199 110.5t92 172.5l8 45l-721 1331h-201q-110 0 -110 131v164q0 139 98 139z" />
    <glyph glyph-name="germandbls" unicode="&#x423;" 
d="M135 2527h967q102 0 102 -135v-164q0 -135 -106 -135h-176l454 -844l389 844h-151q-107 0 -107 131v164q0 139 111 139h881q106 0 106 -139v-164q0 -131 -106 -131h-205l-840 -1737q-94 -200 -223 -297q-129 -96 -326 -96h-364q-111 0 -111 152v172q0 147 111 147h229
q107 0 199 110.5t92 172.5l8 45l-721 1331h-201q-110 0 -110 131v164q0 139 98 139z" />
    <glyph glyph-name="registered" unicode="&#xd4;" 
d="M557 1262q0 -152 115 -222q114 -69 336 -69h73v622h-86q-196 0 -317 -92t-121 -239zM2073 1262q0 147 -121 239t-318 92h-86v-622h74q225 0 338 69q113 70 113 222zM1864 0h-1098q-111 0 -111 135v156q0 131 115 131h311v160h-196q-238 0 -428 61q-191 62 -305 213
q-115 152 -115 401q0 230 116.5 394t311.5 245q194 82 424 82h192v136h-319q-107 0 -107 135v143q0 135 103 135h1114q102 0 102 -135v-143q0 -135 -106 -135h-320v-136h193q229 0 424 -82q194 -81 311 -245t117 -394q0 -249 -115 -401q-115 -151 -305 -213
q-191 -61 -428 -61h-197v-160h312q110 0 110 -131v-156q0 -135 -106 -135z" />
    <glyph glyph-name="registered" unicode="&#x424;" 
d="M557 1262q0 -152 115 -222q114 -69 336 -69h73v622h-86q-196 0 -317 -92t-121 -239zM2073 1262q0 147 -121 239t-318 92h-86v-622h74q225 0 338 69q113 70 113 222zM1864 0h-1098q-111 0 -111 135v156q0 131 115 131h311v160h-196q-238 0 -428 61q-191 62 -305 213
q-115 152 -115 401q0 230 116.5 394t311.5 245q194 82 424 82h192v136h-319q-107 0 -107 135v143q0 135 103 135h1114q102 0 102 -135v-143q0 -135 -106 -135h-320v-136h193q229 0 424 -82q194 -81 311 -245t117 -394q0 -249 -115 -401q-115 -151 -305 -213
q-191 -61 -428 -61h-197v-160h312q110 0 110 -131v-156q0 -135 -106 -135z" />
    <glyph glyph-name="Otilde.0" unicode="&#xd5;" 
d="M287 2527h774q110 0 110 -135v-164q0 -135 -110 -135h-45l332 -414l340 414h-111q-111 0 -111 135v164q0 135 111 135h778q103 0 103 -135v-164q0 -135 -107 -135h-70l-643 -766l709 -893h61q107 0 107 -135v-164q0 -135 -111 -135h-831q-111 0 -111 135v164
q0 135 111 135h102l-360 451l-361 -451h111q111 0 111 -135v-164q0 -135 -111 -135h-832q-110 0 -110 135v164q0 135 110 135h95l692 844l-672 815h-57q-107 0 -107 135v164q0 135 103 135z" />
    <glyph glyph-name="Otilde.0" unicode="&#x425;" 
d="M287 2527h774q110 0 110 -135v-164q0 -135 -110 -135h-45l332 -414l340 414h-111q-111 0 -111 135v164q0 135 111 135h778q103 0 103 -135v-164q0 -135 -107 -135h-70l-643 -766l709 -893h61q107 0 107 -135v-164q0 -135 -111 -135h-831q-111 0 -111 135v164
q0 135 111 135h102l-360 451l-361 -451h111q111 0 111 -135v-164q0 -135 -111 -135h-832q-110 0 -110 135v164q0 135 110 135h95l692 844l-672 815h-57q-107 0 -107 135v164q0 135 103 135z" />
    <glyph glyph-name="copyright" unicode="&#xd6;" 
d="M2490 -594q0 -106 -90 -106h-274q-86 0 -86 106v594h-1770q-110 0 -110 135v164q0 135 110 135h136v1659h-140q-110 0 -110 135v164q0 135 106 135h877q110 0 110 -135v-164q0 -135 -110 -135h-254v-1659h876v1659h-254q-110 0 -110 135v164q0 135 110 135h877
q106 0 106 -135v-164q0 -135 -110 -135h-139v-1659h135q114 0 114 -86v-942z" />
    <glyph glyph-name="copyright" unicode="&#x426;" 
d="M2490 -594q0 -106 -90 -106h-274q-86 0 -86 106v594h-1770q-110 0 -110 135v164q0 135 110 135h136v1659h-140q-110 0 -110 135v164q0 135 106 135h877q110 0 110 -135v-164q0 -135 -110 -135h-254v-1659h876v1659h-254q-110 0 -110 135v164q0 135 110 135h877
q106 0 106 -135v-164q0 -135 -110 -135h-139v-1659h135q114 0 114 -86v-942z" />
    <glyph glyph-name="trademark" unicode="&#xd7;" 
d="M225 2527h881q106 0 106 -135v-164q0 -135 -106 -135h-258v-446q0 -230 229 -230h672v676h-205q-110 0 -110 135v164q0 135 110 135h881q102 0 102 -135v-164q0 -135 -106 -135h-189v-1659h185q106 0 106 -135v-164q0 -135 -102 -135h-1082q-110 0 -110 135v164
q0 135 110 135h410v549h-676q-323 0 -516 164q-192 164 -192 438v508h-136q-110 0 -110 135v164q0 135 106 135z" />
    <glyph glyph-name="trademark" unicode="&#x427;" 
d="M225 2527h881q106 0 106 -135v-164q0 -135 -106 -135h-258v-446q0 -230 229 -230h672v676h-205q-110 0 -110 135v164q0 135 110 135h881q102 0 102 -135v-164q0 -135 -106 -135h-189v-1659h185q106 0 106 -135v-164q0 -135 -102 -135h-1082q-110 0 -110 135v164
q0 135 110 135h410v549h-676q-323 0 -516 164q-192 164 -192 438v508h-136q-110 0 -110 135v164q0 135 106 135z" />
    <glyph glyph-name="acute" unicode="&#xd8;" 
d="M1077 2527h492q102 0 102 -143v-164q0 -127 -110 -127v-1655h286v1655q-106 0 -106 131v164q0 139 106 139h586q102 0 102 -135v-164q0 -135 -106 -135h-98v-1655h94q106 0 106 -139v-164q0 -135 -98 -135h-2220q-98 0 -98 135v164q0 139 106 139h94v1655h-98
q-106 0 -106 135v164q0 135 102 135h586q106 0 106 -139v-164q0 -131 -106 -131v-1655h286v1655q-114 0 -114 127v164q0 143 106 143z" />
    <glyph glyph-name="acute" unicode="&#x428;" 
d="M1077 2527h492q102 0 102 -143v-164q0 -127 -110 -127v-1655h286v1655q-106 0 -106 131v164q0 139 106 139h586q102 0 102 -135v-164q0 -135 -106 -135h-98v-1655h94q106 0 106 -139v-164q0 -135 -98 -135h-2220q-98 0 -98 135v164q0 139 106 139h94v1655h-98
q-106 0 -106 135v164q0 135 102 135h586q106 0 106 -139v-164q0 -131 -106 -131v-1655h286v1655q-114 0 -114 127v164q0 143 106 143z" />
    <glyph glyph-name="dieresis" unicode="&#xd9;" 
d="M1569 2527q102 0 102 -143v-164q0 -127 -110 -127v-1655h286v1655q-106 0 -106 131v164q0 139 106 139h586q102 0 102 -135v-164q0 -135 -106 -135h-98v-1655h94q106 0 106 -139v-750q0 -102 -86 -102h-274q-90 0 -90 102v451h-1868q-98 0 -98 135v164q0 139 106 139h94
v1655h-98q-106 0 -106 135v164q0 135 102 135h586q106 0 106 -139v-164q0 -131 -106 -131v-1655h286v1655q-114 0 -114 127v164q0 143 106 143h492z" />
    <glyph glyph-name="dieresis" unicode="&#x429;" 
d="M1569 2527q102 0 102 -143v-164q0 -127 -110 -127v-1655h286v1655q-106 0 -106 131v164q0 139 106 139h586q102 0 102 -135v-164q0 -135 -106 -135h-98v-1655h94q106 0 106 -139v-750q0 -102 -86 -102h-274q-90 0 -90 102v451h-1868q-98 0 -98 135v164q0 139 106 139h94
v1655h-98q-106 0 -106 135v164q0 135 102 135h586q106 0 106 -139v-164q0 -131 -106 -131v-1655h286v1655q-114 0 -114 127v164q0 143 106 143h492z" />
    <glyph glyph-name="notequal" unicode="&#xda;" 
d="M1343 1225v-787h336q148 0 256 131q109 131 109 283q0 147 -117 260t-264 113h-320zM172 2527h1720q107 0 107 -135v-164q0 -135 -107 -135h-549v-430h373q217 0 418 -92t324 -283q122 -190 122 -461v-8q0 -262 -122.5 -450.5t-321.5 -278.5t-416 -90h-1134
q-103 0 -103 135v164q0 139 107 139h270v1655h-348v-623q0 -110 -86 -110h-279q-90 0 -90 119v925q0 123 115 123z" />
    <glyph glyph-name="notequal" unicode="&#x42a;" 
d="M1343 1225v-787h336q148 0 256 131q109 131 109 283q0 147 -117 260t-264 113h-320zM172 2527h1720q107 0 107 -135v-164q0 -135 -107 -135h-549v-430h373q217 0 418 -92t324 -283q122 -190 122 -461v-8q0 -262 -122.5 -450.5t-321.5 -278.5t-416 -90h-1134
q-103 0 -103 135v164q0 139 107 139h270v1655h-348v-623q0 -110 -86 -110h-279q-90 0 -90 119v925q0 123 115 123z" />
    <glyph glyph-name="AE" unicode="&#xdb;" 
d="M737 434h90q136 0 250 111q115 110 115 295q0 168 -111 266q-110 98 -245 98h-99v-770zM2593 2392v-164q0 -135 -107 -135h-114v-1659h110q107 0 107 -135v-164q0 -135 -107 -135h-700q-111 0 -111 135v164q0 135 111 135h110v1659h-110q-107 0 -107 135v164
q0 135 111 135h704q103 0 103 -135zM156 2093q-111 0 -111 135v164q0 135 107 135h929q111 0 111 -135v-164q0 -135 -115 -135h-340v-451h90q299 0 496 -98t287 -280.5t90 -423.5q0 -271 -121 -463.5t-322 -284.5q-200 -92 -434 -92h-663q-111 0 -111 135v164q0 135 111 135
h98v1659h-102z" />
    <glyph glyph-name="AE" unicode="&#x42b;" 
d="M737 434h90q136 0 250 111q115 110 115 295q0 168 -111 266q-110 98 -245 98h-99v-770zM2593 2392v-164q0 -135 -107 -135h-114v-1659h110q107 0 107 -135v-164q0 -135 -107 -135h-700q-111 0 -111 135v164q0 135 111 135h110v1659h-110q-107 0 -107 135v164
q0 135 111 135h704q103 0 103 -135zM156 2093q-111 0 -111 135v164q0 135 107 135h929q111 0 111 -135v-164q0 -135 -115 -135h-340v-451h90q299 0 496 -98t287 -280.5t90 -423.5q0 -271 -121 -463.5t-322 -284.5q-200 -92 -434 -92h-663q-111 0 -111 135v164q0 135 111 135
h98v1659h-102z" />
    <glyph glyph-name="Oslash" unicode="&#xdc;" 
d="M152 135v164q0 139 110 139h316v1655h-312q-110 0 -110 135v164q0 135 110 135h1307q106 0 106 -135v-164q0 -135 -106 -135h-516v-430h565q221 0 420 -88t323 -281q125 -192 125 -479q0 -270 -123 -455q-122 -184 -321 -272t-420 -88h-1368q-106 0 -106 135zM1057 438
h528q144 0 252 131q109 131 109 283q0 147 -115 260t-262 113h-512v-787z" />
    <glyph glyph-name="Oslash" unicode="&#x42c;" 
d="M152 135v164q0 139 110 139h316v1655h-312q-110 0 -110 135v164q0 135 110 135h1307q106 0 106 -135v-164q0 -135 -106 -135h-516v-430h565q221 0 420 -88t323 -281q125 -192 125 -479q0 -270 -123 -455q-122 -184 -321 -272t-420 -88h-1368q-106 0 -106 135zM1057 438
h528q144 0 252 131q109 131 109 283q0 147 -115 260t-262 113h-512v-787z" />
    <glyph glyph-name="infinity" unicode="&#xdd;" 
d="M1249 426q267 0 488 248t221 465h-463v-144q0 -131 -86 -131h-254q-78 0 -78 131v729q0 115 70 115h262q86 0 86 -115v-176h463q0 172 -199 391q-198 220 -493 220q-217 0 -342 -99q-125 -98 -187 -307q-69 -246 -164 -246h-217q-114 0 -114 123v803q0 143 106 143h262
q29 0 66 -41q41 -45 78 -45q24 0 180 62q156 57 369 57q348 0 626 -174q279 -174 432 -479q154 -305 154 -674v-8q0 -381 -141.5 -682t-411.5 -469t-627 -168h-28q-349 0 -582 75.5t-442 239.5q-99 107 -99 209v135q0 131 164 131h119q45 0 135 -45q238 -163 354 -219
q117 -55 293 -55z" />
    <glyph glyph-name="infinity" unicode="&#x42d;" 
d="M1249 426q267 0 488 248t221 465h-463v-144q0 -131 -86 -131h-254q-78 0 -78 131v729q0 115 70 115h262q86 0 86 -115v-176h463q0 172 -199 391q-198 220 -493 220q-217 0 -342 -99q-125 -98 -187 -307q-69 -246 -164 -246h-217q-114 0 -114 123v803q0 143 106 143h262
q29 0 66 -41q41 -45 78 -45q24 0 180 62q156 57 369 57q348 0 626 -174q279 -174 432 -479q154 -305 154 -674v-8q0 -381 -141.5 -682t-411.5 -469t-627 -168h-28q-349 0 -582 75.5t-442 239.5q-99 107 -99 209v135q0 131 164 131h119q45 0 135 -45q238 -163 354 -219
q117 -55 293 -55z" />
    <glyph glyph-name="plusminus" unicode="&#xde;" 
d="M1729 -53q-275 0 -461.5 174t-272.5 436t-86 508h-151v-631h98q111 0 111 -135v-164q0 -135 -111 -135h-672q-110 0 -110 135v164q0 135 110 135h95v1659h-99q-110 0 -110 135v164q0 135 106 135h676q111 0 111 -135v-164q0 -135 -111 -135h-94v-545h164q0 201 75 441
q76 239 260 411q185 172 484 172q274 0 462.5 -170t276.5 -454.5t88 -628.5q0 -414 -88 -723t-276.5 -479t-474.5 -170zM2077 1315q0 315 -78 544.5t-258 229.5q-193 0 -266.5 -227.5t-73.5 -554.5q0 -389 82 -637t258 -248q160 0 248 256t88 608v29z" />
    <glyph glyph-name="plusminus" unicode="&#x42e;" 
d="M1729 -53q-275 0 -461.5 174t-272.5 436t-86 508h-151v-631h98q111 0 111 -135v-164q0 -135 -111 -135h-672q-110 0 -110 135v164q0 135 110 135h95v1659h-99q-110 0 -110 135v164q0 135 106 135h676q111 0 111 -135v-164q0 -135 -111 -135h-94v-545h164q0 201 75 441
q76 239 260 411q185 172 484 172q274 0 462.5 -170t276.5 -454.5t88 -628.5q0 -414 -88 -723t-276.5 -479t-474.5 -170zM2077 1315q0 315 -78 544.5t-258 229.5q-193 0 -266.5 -227.5t-73.5 -554.5q0 -389 82 -637t258 -248q160 0 248 256t88 608v29z" />
    <glyph glyph-name="lessequal" unicode="&#xdf;" 
d="M893 1769q0 -159 133 -241t305 -82h418v643h-442q-164 0 -289 -78t-125 -242zM1102 2527h1409q106 0 106 -135v-164q0 -135 -106 -135h-275v-1659h271q106 0 106 -135v-164q0 -135 -106 -135h-1008q-110 0 -110 135v164q0 135 110 135h254v574h-221q-98 0 -246 -197
l-495 -651q-119 -160 -205 -160h-447q-106 0 -106 135v164q0 135 106 135h156q70 0 123 70l467 598q-193 20 -363 186t-170 490q0 233 106.5 405t280.5 258t363 86z" />
    <glyph glyph-name="lessequal" unicode="&#x42f;" 
d="M893 1769q0 -159 133 -241t305 -82h418v643h-442q-164 0 -289 -78t-125 -242zM1102 2527h1409q106 0 106 -135v-164q0 -135 -106 -135h-275v-1659h271q106 0 106 -135v-164q0 -135 -106 -135h-1008q-110 0 -110 135v164q0 135 110 135h254v574h-221q-98 0 -246 -197
l-495 -651q-119 -160 -205 -160h-447q-106 0 -106 135v164q0 135 106 135h156q70 0 123 70l467 598q-193 20 -363 186t-170 490q0 233 106.5 405t280.5 258t363 86z" />
    <glyph glyph-name="agrave.0" unicode="&#xe0;" 
d="M1245 954q-266 0 -434 -71.5t-168 -264.5v-8q0 -98 102 -141q103 -43 226 -43h20q185 0 369 61q184 62 303 177v245q-78 45 -418 45zM1266 2019q241 0 438 -75.5t311 -237.5q115 -162 115 -395v-885h246q106 0 106 -152v-127q0 -147 -110 -147h-562q-110 0 -122 193
q-189 -132 -345 -185q-155 -53 -385 -53q-221 0 -395 51t-284.5 192.5t-110.5 391.5q0 295 157.5 467t387.5 235q229 64 467 64q110 0 255.5 -8.5t227.5 -32.5q0 151 -119 235t-319 84q-144 0 -303 -102q-164 -102 -226 -102h-180q-119 0 -119 163v148q17 127 260 203
q244 75 609 75z" />
    <glyph glyph-name="agrave.0" unicode="&#x430;" 
d="M1245 954q-266 0 -434 -71.5t-168 -264.5v-8q0 -98 102 -141q103 -43 226 -43h20q185 0 369 61q184 62 303 177v245q-78 45 -418 45zM1266 2019q241 0 438 -75.5t311 -237.5q115 -162 115 -395v-885h246q106 0 106 -152v-127q0 -147 -110 -147h-562q-110 0 -122 193
q-189 -132 -345 -185q-155 -53 -385 -53q-221 0 -395 51t-284.5 192.5t-110.5 391.5q0 295 157.5 467t387.5 235q229 64 467 64q110 0 255.5 -8.5t227.5 -32.5q0 151 -119 235t-319 84q-144 0 -303 -102q-164 -102 -226 -102h-180q-119 0 -119 163v148q17 127 260 203
q244 75 609 75z" />
    <glyph glyph-name="greaterequal" unicode="&#xe1;" 
d="M655 967q0 -275 188.5 -428.5t479.5 -153.5q279 0 473 168q195 168 195 414q0 270 -172 446t-492 176q-344 0 -508 -141t-164 -481zM1884 2855h250q135 0 135 -135v-185q0 -118 -170 -155t-493 -37h-562q-217 0 -331 -150q-115 -149 -123 -424l45 -16q98 111 246 184
q147 74 442 74h8q369 0 635 -127t403.5 -362.5t137.5 -546.5q0 -303 -144 -535q-143 -231 -409 -354t-611 -123h-45q-348 0 -614 123t-408 354q-141 232 -141 535v610v12q0 349 101 625q100 277 296 430q197 154 467 154h484q37 0 221 24l180 25v0z" />
    <glyph glyph-name="greaterequal" unicode="&#x431;" 
d="M655 967q0 -275 188.5 -428.5t479.5 -153.5q279 0 473 168q195 168 195 414q0 270 -172 446t-492 176q-344 0 -508 -141t-164 -481zM1884 2855h250q135 0 135 -135v-185q0 -118 -170 -155t-493 -37h-562q-217 0 -331 -150q-115 -149 -123 -424l45 -16q98 111 246 184
q147 74 442 74h8q369 0 635 -127t403.5 -362.5t137.5 -546.5q0 -303 -144 -535q-143 -231 -409 -354t-611 -123h-45q-348 0 -614 123t-408 354q-141 232 -141 535v610v12q0 349 101 625q100 277 296 430q197 154 467 154h484q37 0 221 24l180 25v0z" />
    <glyph glyph-name="yen" unicode="&#xe2;" 
d="M1970 623q0 102 -94 155t-258 53h-565v-405h553q163 0 263.5 47t100.5 137v13zM1516 1212q266 0 266 177q0 159 -279 159h-450v-336h463zM238 1970h1421q254 0 463 -127t209 -344q0 -168 -72 -272.5t-199 -120.5v-45q160 -17 305 -139q146 -123 146 -312
q0 -295 -244 -452.5t-518 -157.5h-1503q-111 0 -111 147v127q0 152 107 152h344v1122h-344q-111 0 -111 148v127q0 147 107 147z" />
    <glyph glyph-name="yen" unicode="&#x432;" 
d="M1970 623q0 102 -94 155t-258 53h-565v-405h553q163 0 263.5 47t100.5 137v13zM1516 1212q266 0 266 177q0 159 -279 159h-450v-336h463zM238 1970h1421q254 0 463 -127t209 -344q0 -168 -72 -272.5t-199 -120.5v-45q160 -17 305 -139q146 -123 146 -312
q0 -295 -244 -452.5t-518 -157.5h-1503q-111 0 -111 147v127q0 152 107 152h344v1122h-344q-111 0 -111 148v127q0 147 107 147z" />
    <glyph glyph-name="mu" unicode="&#xe3;" 
d="M213 1970h2204q114 0 114 -82v-823q0 -115 -98 -115h-233q-103 0 -103 115v483h-950v-1122h446q107 0 107 -152v-127q0 -147 -111 -147h-1364q-110 0 -110 147v127q0 152 102 152h463v1122h-463q-106 0 -106 148v127q0 147 102 147z" />
    <glyph glyph-name="mu" unicode="&#x433;" 
d="M213 1970h2204q114 0 114 -82v-823q0 -115 -98 -115h-233q-103 0 -103 115v483h-950v-1122h446q107 0 107 -152v-127q0 -147 -111 -147h-1364q-110 0 -110 147v127q0 152 102 152h463v1122h-463q-106 0 -106 148v127q0 147 102 147z" />
    <glyph glyph-name="partialdiff" unicode="&#xe4;" 
d="M901 426h864v1122h-696v-426q0 -266 -55.5 -442t-112.5 -254zM328 1970h2048q106 0 106 -147v-127q0 -148 -110 -148h-140v-1122h176q74 0 74 -78v-799q0 -102 -90 -102h-262q-82 0 -82 102v451h-1450v-451q0 -102 -90 -102h-258q-86 0 -86 102v799q0 78 69 78h103
q135 37 198.5 248t63.5 424v450h-258q-119 0 -119 148v127q0 147 107 147z" />
    <glyph glyph-name="partialdiff" unicode="&#x434;" 
d="M901 426h864v1122h-696v-426q0 -266 -55.5 -442t-112.5 -254zM328 1970h2048q106 0 106 -147v-127q0 -148 -110 -148h-140v-1122h176q74 0 74 -78v-799q0 -102 -90 -102h-262q-82 0 -82 102v451h-1450v-451q0 -102 -90 -102h-258q-86 0 -86 102v799q0 78 69 78h103
q135 37 198.5 248t63.5 424v450h-258q-119 0 -119 148v127q0 147 107 147z" />
    <glyph glyph-name="aring.0" unicode="&#xe5;" 
d="M709 1212h1200q-58 172 -217.5 283t-348.5 111q-217 0 -389 -101q-172 -100 -245 -293zM1348 2019q319 0 575 -121q256 -120 399 -327q144 -207 144 -449v-200q0 -131 -144 -131h-1630q66 -213 236 -312q170 -98 383 -98q205 0 487 131q283 131 320 131h233q98 0 98 -90
v-229q-94 -107 -264 -189t-399.5 -127t-487.5 -45q-348 0 -600 110.5t-385 332t-133 528.5q0 356 137 602q138 246 402 364.5t629 118.5z" />
    <glyph glyph-name="aring.0" unicode="&#x435;" 
d="M709 1212h1200q-58 172 -217.5 283t-348.5 111q-217 0 -389 -101q-172 -100 -245 -293zM1348 2019q319 0 575 -121q256 -120 399 -327q144 -207 144 -449v-200q0 -131 -144 -131h-1630q66 -213 236 -312q170 -98 383 -98q205 0 487 131q283 131 320 131h233q98 0 98 -90
v-229q-94 -107 -264 -189t-399.5 -127t-487.5 -45q-348 0 -600 110.5t-385 332t-133 528.5q0 356 137 602q138 246 402 364.5t629 118.5z" />
    <glyph glyph-name="summation" unicode="&#xe6;" 
d="M1106 1188v348h-78q-82 0 -82 127v217q0 90 78 90h598q78 0 78 -90v-217q0 -127 -82 -127h-78v-348h62l315 385q-115 0 -115 94v201q0 102 107 102h626q103 0 103 -98v-172q0 -135 -74 -135l-86 -29q-131 -41 -205 -115l-295 -323l500 -672h49q111 0 111 -102v-201
q0 -123 -119 -123h-602q-102 0 -102 98v197q0 106 147 111l-295 421h-127v-401h74q106 0 106 -127v-193q0 -106 -94 -106h-594q-106 0 -106 106v193q0 127 106 127h74v401h-127l-299 -421q139 -5 147 -111v-197q0 -98 -102 -98h-602q-115 0 -115 123v201q0 102 107 102h53
l496 672l-291 323q-74 74 -205 115l-86 29q-74 0 -74 135v172q0 98 103 98h622q107 0 107 -102v-201q0 -94 -115 -94l315 -385h66z" />
    <glyph glyph-name="summation" unicode="&#x436;" 
d="M1106 1188v348h-78q-82 0 -82 127v217q0 90 78 90h598q78 0 78 -90v-217q0 -127 -82 -127h-78v-348h62l315 385q-115 0 -115 94v201q0 102 107 102h626q103 0 103 -98v-172q0 -135 -74 -135l-86 -29q-131 -41 -205 -115l-295 -323l500 -672h49q111 0 111 -102v-201
q0 -123 -119 -123h-602q-102 0 -102 98v197q0 106 147 111l-295 421h-127v-401h74q106 0 106 -127v-193q0 -106 -94 -106h-594q-106 0 -106 106v193q0 127 106 127h74v401h-127l-299 -421q139 -5 147 -111v-197q0 -98 -102 -98h-602q-115 0 -115 123v201q0 102 107 102h53
l496 672l-291 323q-74 74 -205 115l-86 29q-74 0 -74 135v172q0 98 103 98h622q107 0 107 -102v-201q0 -94 -115 -94l315 -385h66z" />
    <glyph glyph-name="product" unicode="&#xe7;" 
d="M1360 2048q291 0 498 -66q206 -65 310.5 -188t104.5 -295q0 -147 -80 -264q-79 -117 -219 -145v-41q156 -9 268.5 -117.5t112.5 -300.5q0 -197 -110.5 -352.5t-352.5 -243.5q-241 -88 -602 -88q-311 0 -522 41t-322 114q-159 91 -159 172v205q0 103 90 103h164
q98 0 327 -95q226 -94 435 -94q245 0 386.5 57.5t141.5 176.5q0 90 -135 141t-271 51h-335q-132 0 -132 86v250q0 86 103 86h250q155 0 292.5 51t137.5 162q0 90 -107 129q-106 39 -295 39q-213 0 -376.5 -76t-163.5 -141v-45q0 -115 -119 -115h-274q-119 0 -119 107v520
q0 143 102 143h266q45 0 74 -65h45q160 98 586 98z" />
    <glyph glyph-name="product" unicode="&#x437;" 
d="M1360 2048q291 0 498 -66q206 -65 310.5 -188t104.5 -295q0 -147 -80 -264q-79 -117 -219 -145v-41q156 -9 268.5 -117.5t112.5 -300.5q0 -197 -110.5 -352.5t-352.5 -243.5q-241 -88 -602 -88q-311 0 -522 41t-322 114q-159 91 -159 172v205q0 103 90 103h164
q98 0 327 -95q226 -94 435 -94q245 0 386.5 57.5t141.5 176.5q0 90 -135 141t-271 51h-335q-132 0 -132 86v250q0 86 103 86h250q155 0 292.5 51t137.5 162q0 90 -107 129q-106 39 -295 39q-213 0 -376.5 -76t-163.5 -141v-45q0 -115 -119 -115h-274q-119 0 -119 107v520
q0 143 102 143h266q45 0 74 -65h45q160 98 586 98z" />
    <glyph glyph-name="pi" unicode="&#xe8;" 
d="M877 426h258q106 0 106 -152v-127q0 -147 -111 -147h-860q-106 0 -106 147v127q0 152 106 152h140v1122h-140q-110 0 -110 148v127q0 147 106 147h873q106 0 106 -147v-127q0 -148 -110 -148h-258v-594l892 512v82h-262q-106 0 -106 148v127q0 147 106 147h873
q106 0 106 -147v-127q0 -148 -110 -148h-140v-1122h140q106 0 106 -152v-127q0 -147 -110 -147h-861q-106 0 -106 147v127q0 152 102 152h262v594l-892 -516v-78z" />
    <glyph glyph-name="pi" unicode="&#x438;" 
d="M877 426h258q106 0 106 -152v-127q0 -147 -111 -147h-860q-106 0 -106 147v127q0 152 106 152h140v1122h-140q-110 0 -110 148v127q0 147 106 147h873q106 0 106 -147v-127q0 -148 -110 -148h-258v-594l892 512v82h-262q-106 0 -106 148v127q0 147 106 147h873
q106 0 106 -147v-127q0 -148 -110 -148h-140v-1122h140q106 0 106 -152v-127q0 -147 -110 -147h-861q-106 0 -106 147v127q0 152 102 152h262v594l-892 -516v-78z" />
    <glyph glyph-name="integral" unicode="&#xe9;" 
d="M1135 426q106 0 106 -152v-127q0 -147 -111 -147h-860q-106 0 -106 147v127q0 152 106 152h140v1122h-140q-110 0 -110 148v127q0 147 106 147h873q106 0 106 -147v-127q0 -148 -110 -148h-258v-585l892 503v82h-262q-106 0 -106 148v127q0 147 106 147h873
q106 0 106 -147v-127q0 -148 -110 -148h-140v-1122h140q106 0 106 -152v-127q0 -147 -110 -147h-861q-106 0 -106 147v127q0 152 102 152h262v578l-892 -500v-78h258zM1311 2073q-287 0 -475 155q-189 156 -189 340v115q0 110 58 110h245q78 0 111 -127q57 -208 262 -217
q205 9 262 217q33 127 111 127h246q57 0 57 -110v-115q0 -184 -193 -340q-192 -155 -495 -155z" />
    <glyph glyph-name="integral" unicode="&#x439;" 
d="M1135 426q106 0 106 -152v-127q0 -147 -111 -147h-860q-106 0 -106 147v127q0 152 106 152h140v1122h-140q-110 0 -110 148v127q0 147 106 147h873q106 0 106 -147v-127q0 -148 -110 -148h-258v-585l892 503v82h-262q-106 0 -106 148v127q0 147 106 147h873
q106 0 106 -147v-127q0 -148 -110 -148h-140v-1122h140q106 0 106 -152v-127q0 -147 -110 -147h-861q-106 0 -106 147v127q0 152 102 152h262v578l-892 -500v-78h258zM1311 2073q-287 0 -475 155q-189 156 -189 340v115q0 110 58 110h245q78 0 111 -127q57 -208 262 -217
q205 9 262 217q33 127 111 127h246q57 0 57 -110v-115q0 -184 -193 -340q-192 -155 -495 -155z" />
    <glyph glyph-name="ordfeminine" unicode="&#xea;" 
d="M958 1548v-352l476 389q-156 0 -160 152v114q0 119 102 119h877q102 0 102 -147v-127q0 -148 -106 -148h-156q-82 0 -233 -86q-136 -84 -136 -90v0l-270 -225l741 -721h234q102 0 102 -152v-127q0 -147 -106 -147h-864q-111 0 -111 147v127q0 148 111 148l-467 434
l-136 -106v-324h123q107 0 107 -147v-132q0 -147 -111 -147h-844q-110 0 -110 147v127q0 152 106 152h263v1122h-209q-107 0 -107 148v131q0 143 103 143h802q107 0 107 -143v-131q0 -148 -111 -148h-119z" />
    <glyph glyph-name="ordfeminine" unicode="&#x43a;" 
d="M958 1548v-352l476 389q-156 0 -160 152v114q0 119 102 119h877q102 0 102 -147v-127q0 -148 -106 -148h-156q-82 0 -233 -86q-136 -84 -136 -90v0l-270 -225l741 -721h234q102 0 102 -152v-127q0 -147 -106 -147h-864q-111 0 -111 147v127q0 148 111 148l-467 434
l-136 -106v-324h123q107 0 107 -147v-132q0 -147 -111 -147h-844q-110 0 -110 147v127q0 152 106 152h263v1122h-209q-107 0 -107 148v131q0 143 103 143h802q107 0 107 -143v-131q0 -148 -111 -148h-119z" />
    <glyph glyph-name="ordmasculine" unicode="&#xeb;" 
d="M377 1970h2040q98 0 98 -143v-127q0 -148 -102 -148h-144v-1126h139q103 0 103 -147v-127q0 -152 -107 -152h-798q-107 0 -107 152v127q0 147 98 147h209v1126h-700v-458q0 -242 -84 -504t-227.5 -432t-298.5 -170h-254q-119 0 -119 102v229q0 107 119 107h114
q131 37 207 248t76 420v458h-258q-111 0 -111 144v127q0 147 107 147z" />
    <glyph glyph-name="ordmasculine" unicode="&#x43b;" 
d="M377 1970h2040q98 0 98 -143v-127q0 -148 -102 -148h-144v-1126h139q103 0 103 -147v-127q0 -152 -107 -152h-798q-107 0 -107 152v127q0 147 98 147h209v1126h-700v-458q0 -242 -84 -504t-227.5 -432t-298.5 -170h-254q-119 0 -119 102v229q0 107 119 107h114
q131 37 207 248t76 420v458h-258q-111 0 -111 144v127q0 147 107 147z" />
    <glyph glyph-name="Omega" unicode="&#xec;" 
d="M1204 307q-147 0 -147 115l4 4l-316 745l-20 -745h176q103 0 103 -152v-127q0 -147 -111 -147h-762q-106 0 -106 147v127q0 152 102 152h143l45 1122h-122q-111 0 -111 148v127q0 147 106 147h611q69 0 119 -90l430 -1061l401 1061q49 90 111 90h598q106 0 106 -147v-127
q0 -148 -110 -148h-123l41 -1122h143q106 0 106 -152v-127q0 -147 -110 -147h-762q-107 0 -107 147v127q0 152 99 152h180l-25 745l-311 -745v-4q0 -115 -127 -115h-254z" />
    <glyph glyph-name="Omega" unicode="&#x43c;" 
d="M1204 307q-147 0 -147 115l4 4l-316 745l-20 -745h176q103 0 103 -152v-127q0 -147 -111 -147h-762q-106 0 -106 147v127q0 152 102 152h143l45 1122h-122q-111 0 -111 148v127q0 147 106 147h611q69 0 119 -90l430 -1061l401 1061q49 90 111 90h598q106 0 106 -147v-127
q0 -148 -110 -148h-123l41 -1122h143q106 0 106 -152v-127q0 -147 -110 -147h-762q-107 0 -107 147v127q0 152 99 152h180l-25 745l-311 -745v-4q0 -115 -127 -115h-254z" />
    <glyph glyph-name="ae" unicode="&#xed;" 
d="M877 819v-393h258q106 0 106 -152v-127q0 -147 -111 -147h-860q-106 0 -106 147v127q0 152 106 152h140v1122h-140q-110 0 -110 148v127q0 147 106 147h873q106 0 106 -147v-127q0 -148 -110 -148h-258v-307h892v307h-262q-106 0 -106 148v127q0 147 106 147h873
q106 0 106 -147v-127q0 -148 -110 -148h-140v-1122h140q106 0 106 -152v-127q0 -147 -110 -147h-861q-106 0 -106 147v127q0 152 102 152h262v393h-892z" />
    <glyph glyph-name="ae" unicode="&#x43d;" 
d="M877 819v-393h258q106 0 106 -152v-127q0 -147 -111 -147h-860q-106 0 -106 147v127q0 152 106 152h140v1122h-140q-110 0 -110 148v127q0 147 106 147h873q106 0 106 -147v-127q0 -148 -110 -148h-258v-307h892v307h-262q-106 0 -106 148v127q0 147 106 147h873
q106 0 106 -147v-127q0 -148 -110 -148h-140v-1122h140q106 0 106 -152v-127q0 -147 -110 -147h-861q-106 0 -106 147v127q0 152 102 152h262v393h-892z" />
    <glyph glyph-name="icircumflex.0" unicode="&#xee;" 
d="M655 967q0 -246 194.5 -414t473.5 -168t473 168q195 168 195 414q0 270 -172 446t-492 176q-319 0 -496 -178q-176 -178 -176 -444zM139 975q0 307 141.5 544.5t407.5 364.5t623 127h20q357 0 625 -127t409 -364q142 -238 142 -545q0 -303 -144 -535q-143 -231 -409 -354
t-611 -123h-45q-348 0 -612 123t-405 354q-142 232 -142 535z" />
    <glyph glyph-name="icircumflex.0" unicode="&#x43e;" 
d="M655 967q0 -246 194.5 -414t473.5 -168t473 168q195 168 195 414q0 270 -172 446t-492 176q-319 0 -496 -178q-176 -178 -176 -444zM139 975q0 307 141.5 544.5t407.5 364.5t623 127h20q357 0 625 -127t409 -364q142 -238 142 -545q0 -303 -144 -535q-143 -231 -409 -354
t-611 -123h-45q-348 0 -612 123t-405 354q-142 232 -142 535z" />
    <glyph glyph-name="oslash" unicode="&#xef;" 
d="M1769 1548h-892v-1122h258q106 0 106 -152v-127q0 -147 -111 -147h-860q-106 0 -106 147v127q0 152 106 152h140v1122h-140q-110 0 -110 148v127q0 147 106 147h2114q106 0 106 -147v-127q0 -148 -110 -148h-140v-1122h140q106 0 106 -152v-127q0 -147 -110 -147h-861
q-106 0 -106 147v127q0 152 102 152h262v1122z" />
    <glyph glyph-name="oslash" unicode="&#x43f;" 
d="M1769 1548h-892v-1122h258q106 0 106 -152v-127q0 -147 -111 -147h-860q-106 0 -106 147v127q0 152 106 152h140v1122h-140q-110 0 -110 148v127q0 147 106 147h2114q106 0 106 -147v-127q0 -148 -110 -148h-140v-1122h140q106 0 106 -152v-127q0 -147 -110 -147h-861
q-106 0 -106 147v127q0 152 102 152h262v1122z" />
    <glyph glyph-name="eth" unicode="&#xf0;" 
d="M856 942q0 -237 182 -385q183 -147 412 -147t407.5 170t178.5 395q0 237 -178.5 405t-415.5 168q-254 0 -420 -157.5t-166 -448.5zM98 -610q0 143 107 143h184v2015h-188q-103 0 -103 148v127q0 147 107 147h590q61 0 61 -49v-106l21 -13q86 111 264 160t350 49
q291 0 534 -129q244 -129 383 -364q140 -236 140 -535v-4q0 -274 -125 -510t-367 -373q-241 -137 -565 -137h-8q-189 0 -363 39t-243 133h-21v-598h565q103 0 103 -147v-127q0 -148 -94 -148h-1229q-103 0 -103 152v127z" />
    <glyph glyph-name="eth" unicode="&#x440;" 
d="M856 942q0 -237 182 -385q183 -147 412 -147t407.5 170t178.5 395q0 237 -178.5 405t-415.5 168q-254 0 -420 -157.5t-166 -448.5zM98 -610q0 143 107 143h184v2015h-188q-103 0 -103 148v127q0 147 107 147h590q61 0 61 -49v-106l21 -13q86 111 264 160t350 49
q291 0 534 -129q244 -129 383 -364q140 -236 140 -535v-4q0 -274 -125 -510t-367 -373q-241 -137 -565 -137h-8q-189 0 -363 39t-243 133h-21v-598h565q103 0 103 -147v-127q0 -148 -94 -148h-1229q-103 0 -103 152v127z" />
    <glyph glyph-name="ntilde.0" unicode="&#xf1;" 
d="M1335 2019q246 0 385 -43q140 -43 254 -116q0 127 99 127h217q118 0 118 -132v-667q0 -90 -86 -90h-274q-78 0 -78 73q-61 177 -246 283q-184 107 -401 107q-205 0 -399.5 -172t-194.5 -402q0 -229 186 -401q187 -172 412 -172q291 0 512 163.5t295 163.5h156
q135 0 135 -114v-172q0 -82 -62 -123q-241 -189 -450 -279t-590 -90q-291 0 -543 112.5t-405.5 344t-153.5 559.5q0 307 129 544.5t383 366.5t602 129z" />
    <glyph glyph-name="ntilde.0" unicode="&#x441;" 
d="M1335 2019q246 0 385 -43q140 -43 254 -116q0 127 99 127h217q118 0 118 -132v-667q0 -90 -86 -90h-274q-78 0 -78 73q-61 177 -246 283q-184 107 -401 107q-205 0 -399.5 -172t-194.5 -402q0 -229 186 -401q187 -172 412 -172q291 0 512 163.5t295 163.5h156
q135 0 135 -114v-172q0 -82 -62 -123q-241 -189 -450 -279t-590 -90q-291 0 -543 112.5t-405.5 344t-153.5 559.5q0 307 129 544.5t383 366.5t602 129z" />
    <glyph glyph-name="questiondown" unicode="&#xf2;" 
d="M2032 0h-1418q-110 0 -110 147v132q0 147 106 147h480v1126h-484l-16 -512q0 -159 -98 -159h-234q-127 0 -127 102l37 905q0 82 90 82h2130q90 0 90 -82l33 -905q0 -102 -123 -102h-234q-102 0 -102 159l-12 512h-484v-1126h480q102 0 102 -147v-132q0 -147 -106 -147z
" />
    <glyph glyph-name="questiondown" unicode="&#x442;" 
d="M2032 0h-1418q-110 0 -110 147v132q0 147 106 147h480v1126h-484l-16 -512q0 -159 -98 -159h-234q-127 0 -127 102l37 905q0 82 90 82h2130q90 0 90 -82l33 -905q0 -102 -123 -102h-234q-102 0 -102 159l-12 512h-484v-1126h480q102 0 102 -147v-132q0 -147 -106 -147z
" />
    <glyph glyph-name="exclamdown" unicode="&#xf3;" 
d="M184 1970h893q107 0 107 -147v-127q0 -148 -111 -148h-196l471 -897l487 897h-193q-110 0 -110 148v127q0 147 106 147h828q106 0 106 -147v-127q0 -148 -110 -148h-103l-1093 -2015h221q102 0 102 -147v-127q0 -148 -102 -148h-1245q-111 0 -111 152v127q0 143 102 143
h500l336 623l-758 1392h-123q-110 0 -110 148v127q0 147 106 147z" />
    <glyph glyph-name="exclamdown" unicode="&#x443;" 
d="M184 1970h893q107 0 107 -147v-127q0 -148 -111 -148h-196l471 -897l487 897h-193q-110 0 -110 148v127q0 147 106 147h828q106 0 106 -147v-127q0 -148 -110 -148h-103l-1093 -2015h221q102 0 102 -147v-127q0 -148 -102 -148h-1245q-111 0 -111 152v127q0 143 102 143
h500l336 623l-758 1392h-123q-110 0 -110 148v127q0 147 106 147z" />
    <glyph glyph-name="logicalnot" unicode="&#xf4;" 
d="M537 983q0 -274 55 -438t203 -164q184 0 245 176q62 176 62 422q0 233 -58 410q-57 176 -233 176q-164 0 -219 -176.5t-55 -405.5zM2109 983q0 229 -55 405.5t-219 176.5q-176 0 -233.5 -176.5t-57.5 -409.5q0 -246 61.5 -422t245.5 -176q148 0 203 164t55 438z
M1090 1864v503h-488q-110 0 -110 148v131q0 147 98 147h885q77 0 77 -69v-860h37q41 73 135 110q95 37 222 37h24q172 0 305 -94t211 -326q78 -231 78 -612q0 -365 -61.5 -592t-190.5 -332q-129 -104 -334 -104h-8q-127 0 -244 51q-116 51 -141 113h-33v-574h312
q102 0 102 -151v-127q0 -152 -111 -152h-1056q-111 0 -111 152v127q0 151 103 151h299v574h-29q-25 -62 -143.5 -113t-245.5 -51h-8q-205 0 -332 104q-127 105 -189 332q-61 227 -61 592q0 381 78 612q78 232 209 326t307 94h20q131 0 223.5 -37t133.5 -110h37z" />
    <glyph glyph-name="logicalnot" unicode="&#x444;" 
d="M537 983q0 -274 55 -438t203 -164q184 0 245 176q62 176 62 422q0 233 -58 410q-57 176 -233 176q-164 0 -219 -176.5t-55 -405.5zM2109 983q0 229 -55 405.5t-219 176.5q-176 0 -233.5 -176.5t-57.5 -409.5q0 -246 61.5 -422t245.5 -176q148 0 203 164t55 438z
M1090 1864v503h-488q-110 0 -110 148v131q0 147 98 147h885q77 0 77 -69v-860h37q41 73 135 110q95 37 222 37h24q172 0 305 -94t211 -326q78 -231 78 -612q0 -365 -61.5 -592t-190.5 -332q-129 -104 -334 -104h-8q-127 0 -244 51q-116 51 -141 113h-33v-574h312
q102 0 102 -151v-127q0 -152 -111 -152h-1056q-111 0 -111 152v127q0 151 103 151h299v574h-29q-25 -62 -143.5 -113t-245.5 -51h-8q-205 0 -332 104q-127 105 -189 332q-61 227 -61 592q0 381 78 612q78 232 209 326t307 94h20q131 0 223.5 -37t133.5 -110h37z" />
    <glyph glyph-name="otilde.0" unicode="&#xf5;" 
d="M270 1548q-110 0 -110 148v127q0 147 106 147h836q102 0 102 -147v-127q0 -148 -135 -148l274 -241l254 241h-49q-110 0 -110 148v127q0 147 106 147h836q106 0 106 -147v-127q0 -148 -110 -148h-168l-557 -532l692 -590h86q102 0 102 -152v-127q0 -147 -106 -147h-836
q-106 0 -106 147v127q0 152 102 152h74l-324 270l-307 -270h57q107 0 107 -152v-127q0 -147 -111 -147h-864q-106 0 -106 147v127q0 152 102 152h176l643 582l-622 540h-140z" />
    <glyph glyph-name="otilde.0" unicode="&#x445;" 
d="M270 1548q-110 0 -110 148v127q0 147 106 147h836q102 0 102 -147v-127q0 -148 -135 -148l274 -241l254 241h-49q-110 0 -110 148v127q0 147 106 147h836q106 0 106 -147v-127q0 -148 -110 -148h-168l-557 -532l692 -590h86q102 0 102 -152v-127q0 -147 -106 -147h-836
q-106 0 -106 147v127q0 152 102 152h74l-324 270l-307 -270h57q107 0 107 -152v-127q0 -147 -111 -147h-864q-106 0 -106 147v127q0 152 102 152h176l643 582l-622 540h-140z" />
    <glyph glyph-name="radical" unicode="&#xf6;" 
d="M2048 0h-1778q-106 0 -106 147v127q0 152 106 152h140v1122h-140q-110 0 -110 148v127q0 147 106 147h873q106 0 106 -147v-127q0 -148 -110 -148h-258v-1122h892v1122h-262q-106 0 -106 148v127q0 147 106 147h873q106 0 106 -147v-127q0 -148 -110 -148h-140v-1122h140
q106 0 106 -152v-725q0 -102 -90 -102h-262q-82 0 -82 102v451z" />
    <glyph glyph-name="radical" unicode="&#x446;" 
d="M2048 0h-1778q-106 0 -106 147v127q0 152 106 152h140v1122h-140q-110 0 -110 148v127q0 147 106 147h873q106 0 106 -147v-127q0 -148 -110 -148h-258v-1122h892v1122h-262q-106 0 -106 148v127q0 147 106 147h873q106 0 106 -147v-127q0 -148 -110 -148h-140v-1122h140
q106 0 106 -152v-725q0 -102 -90 -102h-262q-82 0 -82 102v451z" />
    <glyph glyph-name="florin" unicode="&#xf7;" 
d="M1110 1970q98 0 98 -139v-127q0 -152 -106 -152h-262v-180q0 -98 69 -166q70 -67 185 -67h663v413h-213q-110 0 -110 152v127q0 139 110 139h873q102 0 102 -139v-127q0 -152 -106 -152h-189v-1126h193q98 0 98 -143v-127q0 -156 -107 -156h-1060q-111 0 -111 156v123
q0 147 106 147h414v291h-733q-270 0 -461 174q-190 174 -190 391v270h-144q-106 0 -106 152v127q0 139 106 139h881z" />
    <glyph glyph-name="florin" unicode="&#x447;" 
d="M1110 1970q98 0 98 -139v-127q0 -152 -106 -152h-262v-180q0 -98 69 -166q70 -67 185 -67h663v413h-213q-110 0 -110 152v127q0 139 110 139h873q102 0 102 -139v-127q0 -152 -106 -152h-189v-1126h193q98 0 98 -143v-127q0 -156 -107 -156h-1060q-111 0 -111 156v123
q0 147 106 147h414v291h-733q-270 0 -461 174q-190 174 -190 391v270h-144q-106 0 -106 152v127q0 139 106 139h881z" />
    <glyph glyph-name="approxequal" unicode="&#xf8;" 
d="M1552 1970q107 0 107 -147v-127q0 -148 -111 -148v-1122h303v1122q-110 0 -110 148v127q0 147 102 147h582q102 0 102 -147v-127q0 -148 -106 -148h-94v-1122h94q102 0 102 -152v-127q0 -147 -98 -147h-2204q-102 0 -102 147v127q0 152 106 152h94v1122h-94
q-110 0 -110 148v127q0 147 106 147h582q102 0 102 -147v-127q0 -148 -110 -148v-1122h303v1122q-111 0 -111 148v127q0 147 107 147h458z" />
    <glyph glyph-name="approxequal" unicode="&#x448;" 
d="M1552 1970q107 0 107 -147v-127q0 -148 -111 -148v-1122h303v1122q-110 0 -110 148v127q0 147 102 147h582q102 0 102 -147v-127q0 -148 -106 -148h-94v-1122h94q102 0 102 -152v-127q0 -147 -98 -147h-2204q-102 0 -102 147v127q0 152 106 152h94v1122h-94
q-110 0 -110 148v127q0 147 106 147h582q102 0 102 -147v-127q0 -148 -110 -148v-1122h303v1122q-111 0 -111 148v127q0 147 107 147h458z" />
    <glyph glyph-name="Delta" unicode="&#xf9;" 
d="M1659 1823v-127q0 -148 -111 -148v-1122h303v1122q-110 0 -110 148v127q0 147 102 147h582q102 0 102 -147v-127q0 -148 -106 -148h-99v-1122h99q102 0 102 -152v-725q0 -102 -86 -102h-262q-86 0 -86 102v451h-1868q-102 0 -102 147v127q0 152 106 152h94v1122h-94
q-110 0 -110 148v127q0 147 106 147h582q102 0 102 -147v-127q0 -148 -110 -148v-1122h303v1122q-111 0 -111 148v127q0 147 107 147h458q107 0 107 -147z" />
    <glyph glyph-name="Delta" unicode="&#x449;" 
d="M1659 1823v-127q0 -148 -111 -148v-1122h303v1122q-110 0 -110 148v127q0 147 102 147h582q102 0 102 -147v-127q0 -148 -106 -148h-99v-1122h99q102 0 102 -152v-725q0 -102 -86 -102h-262q-86 0 -86 102v451h-1868q-102 0 -102 147v127q0 152 106 152h94v1122h-94
q-110 0 -110 148v127q0 147 106 147h582q102 0 102 -147v-127q0 -148 -110 -148v-1122h303v1122q-111 0 -111 148v127q0 147 107 147h458q107 0 107 -147z" />
    <glyph glyph-name="guillemotleft" unicode="&#xfa;" 
d="M66 1888q0 82 118 82h1704q103 0 103 -147v-127q0 -144 -115 -144h-541v-225h504q172 0 342 -63.5t282.5 -213t112.5 -374.5q0 -250 -137 -404q-137 -153 -313 -213q-176 -59 -299 -59h-1229q-106 0 -106 147v127q0 152 102 152h278v1126h-368v-364q0 -107 -86 -107h-262
q-90 0 -90 107v700zM2040 684q0 107 -109 170q-108 64 -243 64h-353v-492h369q139 0 237.5 69.5t98.5 188.5z" />
    <glyph glyph-name="guillemotleft" unicode="&#x44a;" 
d="M66 1888q0 82 118 82h1704q103 0 103 -147v-127q0 -144 -115 -144h-541v-225h504q172 0 342 -63.5t282.5 -213t112.5 -374.5q0 -250 -137 -404q-137 -153 -313 -213q-176 -59 -299 -59h-1229q-106 0 -106 147v127q0 152 102 152h278v1126h-368v-364q0 -107 -86 -107h-262
q-90 0 -90 107v700zM2040 684q0 107 -109 170q-108 64 -243 64h-353v-492h369q139 0 237.5 69.5t98.5 188.5z" />
    <glyph glyph-name="guillemotright" unicode="&#xfb;" 
d="M1204 680q0 115 -98 176q-98 62 -283 62h-98v-492h106q181 0 277 63q96 64 96 191zM2609 1823v-127q0 -148 -106 -148h-111v-1122h111q102 0 102 -152v-127q0 -147 -106 -147h-668q-107 0 -107 147v127q0 152 103 152h94v1122h-119q-110 0 -110 148v127q0 147 106 147
h709q102 0 102 -147zM156 1548q-111 0 -111 148v127q0 147 107 147h917q107 0 107 -147v-127q0 -148 -111 -148h-340v-217h319q267 0 476 -172t209 -491q0 -230 -115 -381.5t-281 -219t-325 -67.5h-848q-111 0 -111 147v127q0 152 107 152h102v1122h-102z" />
    <glyph glyph-name="guillemotright" unicode="&#x44b;" 
d="M1204 680q0 115 -98 176q-98 62 -283 62h-98v-492h106q181 0 277 63q96 64 96 191zM2609 1823v-127q0 -148 -106 -148h-111v-1122h111q102 0 102 -152v-127q0 -147 -106 -147h-668q-107 0 -107 147v127q0 152 103 152h94v1122h-119q-110 0 -110 148v127q0 147 106 147
h709q102 0 102 -147zM156 1548q-111 0 -111 148v127q0 147 107 147h917q107 0 107 -147v-127q0 -148 -111 -148h-340v-217h319q267 0 476 -172t209 -491q0 -230 -115 -381.5t-281 -219t-325 -67.5h-848q-111 0 -111 147v127q0 152 107 152h102v1122h-102z" />
    <glyph glyph-name="ellipsis" unicode="&#xfc;" 
d="M1053 905v-479h532q135 0 246 61q111 62 111 181q0 118 -115 177.5t-254 59.5h-520zM258 1970h1315q102 0 102 -147v-127q0 -144 -110 -144h-516v-237h589q181 0 377 -66q197 -65 332 -213q135 -147 135 -381q0 -217 -127 -366.5t-321.5 -219t-386.5 -69.5h-1377
q-106 0 -106 147v127q0 152 106 152h316v1126h-316q-110 0 -110 144v127q0 147 98 147z" />
    <glyph glyph-name="ellipsis" unicode="&#x44c;" 
d="M1053 905v-479h532q135 0 246 61q111 62 111 181q0 118 -115 177.5t-254 59.5h-520zM258 1970h1315q102 0 102 -147v-127q0 -144 -110 -144h-516v-237h589q181 0 377 -66q197 -65 332 -213q135 -147 135 -381q0 -217 -127 -366.5t-321.5 -219t-386.5 -69.5h-1377
q-106 0 -106 147v127q0 152 106 152h316v1126h-316q-110 0 -110 144v127q0 147 98 147z" />
    <glyph glyph-name="nonbreakingspace" unicode="&#xfd;" 
d="M1343 2015q316 0 563.5 -127t383 -360.5t135.5 -532.5q0 -348 -158 -581.5t-412 -341.5q-253 -109 -536 -109h-21q-360 0 -581 96q-221 97 -451 289q-45 37 -45 115v164q0 114 131 114h156q74 0 299 -163q221 -164 512 -164q250 0 391 75q141 76 174 285h-860
q-115 0 -115 74v246h-4q0 90 119 90h864q-28 147 -200 274t-365 127q-221 0 -397 -108.5t-254 -305.5q-29 -73 -94 -73h-254q-86 0 -86 90v667q0 132 114 132h221q91 0 91 -123v-21q122 90 259.5 131t419.5 41z" />
    <glyph glyph-name="nonbreakingspace" unicode="&#x44d;" 
d="M1343 2015q316 0 563.5 -127t383 -360.5t135.5 -532.5q0 -348 -158 -581.5t-412 -341.5q-253 -109 -536 -109h-21q-360 0 -581 96q-221 97 -451 289q-45 37 -45 115v164q0 114 131 114h156q74 0 299 -163q221 -164 512 -164q250 0 391 75q141 76 174 285h-860
q-115 0 -115 74v246h-4q0 90 119 90h864q-28 147 -200 274t-365 127q-221 0 -397 -108.5t-254 -305.5q-29 -73 -94 -73h-254q-86 0 -86 90v667q0 132 114 132h221q91 0 91 -123v-21q122 90 259.5 131t419.5 41z" />
    <glyph glyph-name="Agrave" unicode="&#xfe;" 
d="M1741 385q168 0 241 180q74 180 74 418v37q0 221 -82 389t-250 168q-176 0 -256 -178q-79 -178 -79 -400v-16q0 -209 90 -403.5t262 -194.5zM1737 2015q266 0 450 -141q185 -141 271 -379t86 -512v-16q0 -287 -74 -514.5t-252 -364.5t-473 -137h-4q-287 0 -463 143
q-176 144 -252 342q-76 199 -92 383h-160v-393h90q107 0 107 -152v-127q0 -147 -103 -147h-663q-99 0 -99 147v127q0 152 99 152h102v1126h-102q-103 0 -103 144v127q0 147 103 147h676q94 0 94 -147v-127q0 -144 -94 -144h-107v-356h168q8 184 90 374.5t258 317.5t447 127z
" />
    <glyph glyph-name="Agrave" unicode="&#x44e;" 
d="M1741 385q168 0 241 180q74 180 74 418v37q0 221 -82 389t-250 168q-176 0 -256 -178q-79 -178 -79 -400v-16q0 -209 90 -403.5t262 -194.5zM1737 2015q266 0 450 -141q185 -141 271 -379t86 -512v-16q0 -287 -74 -514.5t-252 -364.5t-473 -137h-4q-287 0 -463 143
q-176 144 -252 342q-76 199 -92 383h-160v-393h90q107 0 107 -152v-127q0 -147 -103 -147h-663q-99 0 -99 147v127q0 152 99 152h102v1126h-102q-103 0 -103 144v127q0 147 103 147h676q94 0 94 -147v-127q0 -144 -94 -144h-107v-356h168q8 184 90 374.5t258 317.5t447 127z
" />
    <glyph glyph-name="Atilde" unicode="&#xff;" 
d="M930 1364q0 -119 94 -172t262 -53h471v413h-487q-152 0 -246 -41t-94 -147zM143 426h152q102 0 237 115l320 254q-197 12 -338 163q-141 152 -141 394q0 315 231 467q232 151 498 151h1405q102 0 102 -143v-127q0 -148 -119 -148h-266v-1126h279q102 0 102 -147v-127
q0 -152 -106 -152h-1000q-102 0 -102 147v127q0 152 106 152h254v295h-233q-74 0 -172 -94l-639 -557q-70 -70 -172 -70h-418q-86 0 -86 147v127q0 152 106 152z" />
    <glyph glyph-name="Atilde" unicode="&#x44f;" 
d="M930 1364q0 -119 94 -172t262 -53h471v413h-487q-152 0 -246 -41t-94 -147zM143 426h152q102 0 237 115l320 254q-197 12 -338 163q-141 152 -141 394q0 315 231 467q232 151 498 151h1405q102 0 102 -143v-127q0 -148 -119 -148h-266v-1126h279q102 0 102 -147v-127
q0 -152 -106 -152h-1000q-102 0 -102 147v127q0 152 106 152h254v295h-233q-74 0 -172 -94l-639 -557q-70 -70 -172 -70h-418q-86 0 -86 147v127q0 152 106 152z" />
    <glyph glyph-name="quotedblleft" unicode="&#x2013;" 
d="M614 700q-69 0 -69 82v406q0 69 73 69h1397q78 0 78 -73v-393q0 -91 -74 -91h-1405z" />
    <glyph glyph-name="quotedblright" unicode="&#x2014;" horiz-adv-x="2015" 
d="M2384 700h-2126q-70 0 -70 82v406q0 69 74 69h2118q78 0 78 -73v-393q0 -91 -74 -91z" />
    <glyph glyph-name="Otilde" unicode="&#x2018;" 
d="M1483 1364h-574q-57 0 -57 106q0 46 12 99l484 962q20 58 114 58q33 0 62 -4l205 -82q53 -25 53 -103l-4 -45l-217 -889q-25 -102 -78 -102z" />
    <glyph glyph-name="OE" unicode="&#x2019;" 
d="M1208 2540h574q53 0 53 -107q0 -49 -8 -94l-479 -967q-25 -57 -123 -57q-29 0 -58 8l-200 82q-62 25 -62 98q0 8 4 25q4 20 4 24l217 885q25 103 78 103z" />
    <glyph glyph-name="oe" unicode="&#x201c;" 
d="M2056 1118h-606q-102 0 -102 131q0 66 41 156l553 1065q49 110 176 110h4l282 -94q62 -24 62 -131v-37l-291 -1093q-29 -107 -119 -107zM819 1122h-606q-102 0 -102 131q0 66 41 156l553 1065q49 111 176 111h4l282 -95q62 -24 62 -135v-33l-291 -1093
q-29 -107 -119 -107z" />
    <glyph glyph-name="endash" unicode="&#x201d;" 
d="M606 2535h606q103 0 103 -135q0 -69 -41 -151l-549 -1065q-55 -115 -141 -115q-19 0 -39 4l-283 94q-69 25 -69 127l4 41l295 1094q20 106 114 106zM1843 2531h606q103 0 103 -135q0 -69 -41 -151l-549 -1065q-55 -115 -141 -115q-19 0 -39 4l-283 94q-69 25 -69 127
l4 41l295 1094q20 106 114 106z" />
    <glyph glyph-name="quoteleft" unicode="&#x2219;" horiz-adv-x="2626" 
d="M1458 2019q127 0 242 -104.5t115 -218.5v-197q0 -119 -113 -221t-236 -102h-282q-123 0 -240 98t-117 221v205q0 123 117 221t240 98h274z" />
    <glyph glyph-name="emdash" horiz-adv-x="2626" 
d="M0 0v2626h2626v-2626h-2626z" />
  </font>
</defs>
</svg>
